<?xml version="1.0" encoding="utf-8" standalone="no"?>
<!DOCTYPE svg PUBLIC "-//W3C//DTD SVG 1.1//EN"
  "http://www.w3.org/Graphics/SVG/1.1/DTD/svg11.dtd">
<svg xmlns:xlink="http://www.w3.org/1999/xlink" width="470.180625pt" height="319.523625pt" viewBox="0 0 470.180625 319.523625" xmlns="http://www.w3.org/2000/svg" version="1.1">
 <metadata>
  <rdf:RDF xmlns:dc="http://purl.org/dc/elements/1.1/" xmlns:cc="http://creativecommons.org/ns#" xmlns:rdf="http://www.w3.org/1999/02/22-rdf-syntax-ns#">
   <cc:Work>
    <dc:type rdf:resource="http://purl.org/dc/dcmitype/StillImage"/>
    <dc:date>2024-09-24T13:10:37.181951</dc:date>
    <dc:format>image/svg+xml</dc:format>
    <dc:creator>
     <cc:Agent>
      <dc:title>Matplotlib v3.8.3, https://matplotlib.org/</dc:title>
     </cc:Agent>
    </dc:creator>
   </cc:Work>
  </rdf:RDF>
 </metadata>
 <defs>
  <style type="text/css">*{stroke-linejoin: round; stroke-linecap: butt}</style>
 </defs>
 <g id="figure_1">
  <g id="patch_1">
   <path d="M 0 319.523625 
L 470.180625 319.523625 
L 470.180625 0 
L 0 0 
z
" style="fill: #ffffff"/>
  </g>
  <g id="axes_1">
   <g id="patch_2">
    <path d="M 62.827125 273.312 
L 419.947125 273.312 
L 419.947125 7.2 
L 62.827125 7.2 
z
" style="fill: #fcfcfc"/>
   </g>
   <g id="matplotlib.axis_1">
    <g id="xtick_1">
     <g id="line2d_1">
      <path d="M 65.634849 273.312 
L 65.634849 7.2 
" clip-path="url(#p279746e144)" style="fill: none; stroke: #f2f2f2; stroke-width: 0.8; stroke-linecap: round"/>
     </g>
     <g id="text_1">
      <text style="fill: #262626; font: 13.2px 'Arial', 'DejaVu Sans', 'Liberation Sans', 'Bitstream Vera Sans', sans-serif; text-anchor: middle" x="65.634849" y="291.641937" transform="rotate(-0 65.634849 291.641937)">0.2</text>
     </g>
    </g>
    <g id="xtick_2">
     <g id="line2d_2">
      <path d="M 113.980047 273.312 
L 113.980047 7.2 
" clip-path="url(#p279746e144)" style="fill: none; stroke: #f2f2f2; stroke-width: 0.8; stroke-linecap: round"/>
     </g>
     <g id="text_2">
      <text style="fill: #262626; font: 13.2px 'Arial', 'DejaVu Sans', 'Liberation Sans', 'Bitstream Vera Sans', sans-serif; text-anchor: middle" x="113.980047" y="291.641937" transform="rotate(-0 113.980047 291.641937)">0.3</text>
     </g>
    </g>
    <g id="xtick_3">
     <g id="line2d_3">
      <path d="M 162.325245 273.312 
L 162.325245 7.2 
" clip-path="url(#p279746e144)" style="fill: none; stroke: #f2f2f2; stroke-width: 0.8; stroke-linecap: round"/>
     </g>
     <g id="text_3">
      <text style="fill: #262626; font: 13.2px 'Arial', 'DejaVu Sans', 'Liberation Sans', 'Bitstream Vera Sans', sans-serif; text-anchor: middle" x="162.325245" y="291.641937" transform="rotate(-0 162.325245 291.641937)">0.4</text>
     </g>
    </g>
    <g id="xtick_4">
     <g id="line2d_4">
      <path d="M 210.670442 273.312 
L 210.670442 7.2 
" clip-path="url(#p279746e144)" style="fill: none; stroke: #f2f2f2; stroke-width: 0.8; stroke-linecap: round"/>
     </g>
     <g id="text_4">
      <text style="fill: #262626; font: 13.2px 'Arial', 'DejaVu Sans', 'Liberation Sans', 'Bitstream Vera Sans', sans-serif; text-anchor: middle" x="210.670442" y="291.641937" transform="rotate(-0 210.670442 291.641937)">0.5</text>
     </g>
    </g>
    <g id="xtick_5">
     <g id="line2d_5">
      <path d="M 259.01564 273.312 
L 259.01564 7.2 
" clip-path="url(#p279746e144)" style="fill: none; stroke: #f2f2f2; stroke-width: 0.8; stroke-linecap: round"/>
     </g>
     <g id="text_5">
      <text style="fill: #262626; font: 13.2px 'Arial', 'DejaVu Sans', 'Liberation Sans', 'Bitstream Vera Sans', sans-serif; text-anchor: middle" x="259.01564" y="291.641937" transform="rotate(-0 259.01564 291.641937)">0.6</text>
     </g>
    </g>
    <g id="xtick_6">
     <g id="line2d_6">
      <path d="M 307.360838 273.312 
L 307.360838 7.2 
" clip-path="url(#p279746e144)" style="fill: none; stroke: #f2f2f2; stroke-width: 0.8; stroke-linecap: round"/>
     </g>
     <g id="text_6">
      <text style="fill: #262626; font: 13.2px 'Arial', 'DejaVu Sans', 'Liberation Sans', 'Bitstream Vera Sans', sans-serif; text-anchor: middle" x="307.360838" y="291.641937" transform="rotate(-0 307.360838 291.641937)">0.7</text>
     </g>
    </g>
    <g id="xtick_7">
     <g id="line2d_7">
      <path d="M 355.706036 273.312 
L 355.706036 7.2 
" clip-path="url(#p279746e144)" style="fill: none; stroke: #f2f2f2; stroke-width: 0.8; stroke-linecap: round"/>
     </g>
     <g id="text_7">
      <text style="fill: #262626; font: 13.2px 'Arial', 'DejaVu Sans', 'Liberation Sans', 'Bitstream Vera Sans', sans-serif; text-anchor: middle" x="355.706036" y="291.641937" transform="rotate(-0 355.706036 291.641937)">0.8</text>
     </g>
    </g>
    <g id="xtick_8">
     <g id="line2d_8">
      <path d="M 404.051233 273.312 
L 404.051233 7.2 
" clip-path="url(#p279746e144)" style="fill: none; stroke: #f2f2f2; stroke-width: 0.8; stroke-linecap: round"/>
     </g>
     <g id="text_8">
      <text style="fill: #262626; font: 13.2px 'Arial', 'DejaVu Sans', 'Liberation Sans', 'Bitstream Vera Sans', sans-serif; text-anchor: middle" x="404.051233" y="291.641937" transform="rotate(-0 404.051233 291.641937)">0.9</text>
     </g>
    </g>
    <g id="text_9">
     <text style="fill: #262626; font: 14.4px 'Arial', 'DejaVu Sans', 'Liberation Sans', 'Bitstream Vera Sans', sans-serif; text-anchor: middle" x="241.387125" y="309.328875" transform="rotate(-0 241.387125 309.328875)">Magratio</text>
    </g>
   </g>
   <g id="matplotlib.axis_2">
    <g id="ytick_1">
     <g id="line2d_9">
      <path d="M 62.827125 265.221977 
L 419.947125 265.221977 
" clip-path="url(#p279746e144)" style="fill: none; stroke: #f2f2f2; stroke-width: 0.8; stroke-linecap: round"/>
     </g>
     <g id="line2d_10">
      <defs>
       <path id="m02008f050a" d="M 0 0 
L -4.8 0 
" style="stroke: #262626"/>
      </defs>
      <g>
       <use xlink:href="#m02008f050a" x="62.827125" y="265.221977" style="fill: #262626; stroke: #262626"/>
      </g>
     </g>
     <g id="text_10">
      <text style="fill: #262626; font: 13.2px 'Arial', 'DejaVu Sans', 'Liberation Sans', 'Bitstream Vera Sans', sans-serif; text-anchor: end" x="54.527125" y="270.236946" transform="rotate(-0 54.527125 270.236946)">0.65</text>
     </g>
    </g>
    <g id="ytick_2">
     <g id="line2d_11">
      <path d="M 62.827125 230.089695 
L 419.947125 230.089695 
" clip-path="url(#p279746e144)" style="fill: none; stroke: #f2f2f2; stroke-width: 0.8; stroke-linecap: round"/>
     </g>
     <g id="line2d_12">
      <g>
       <use xlink:href="#m02008f050a" x="62.827125" y="230.089695" style="fill: #262626; stroke: #262626"/>
      </g>
     </g>
     <g id="text_11">
      <text style="fill: #262626; font: 13.2px 'Arial', 'DejaVu Sans', 'Liberation Sans', 'Bitstream Vera Sans', sans-serif; text-anchor: end" x="54.527125" y="235.104663" transform="rotate(-0 54.527125 235.104663)">0.70</text>
     </g>
    </g>
    <g id="ytick_3">
     <g id="line2d_13">
      <path d="M 62.827125 194.957412 
L 419.947125 194.957412 
" clip-path="url(#p279746e144)" style="fill: none; stroke: #f2f2f2; stroke-width: 0.8; stroke-linecap: round"/>
     </g>
     <g id="line2d_14">
      <g>
       <use xlink:href="#m02008f050a" x="62.827125" y="194.957412" style="fill: #262626; stroke: #262626"/>
      </g>
     </g>
     <g id="text_12">
      <text style="fill: #262626; font: 13.2px 'Arial', 'DejaVu Sans', 'Liberation Sans', 'Bitstream Vera Sans', sans-serif; text-anchor: end" x="54.527125" y="199.972381" transform="rotate(-0 54.527125 199.972381)">0.75</text>
     </g>
    </g>
    <g id="ytick_4">
     <g id="line2d_15">
      <path d="M 62.827125 159.82513 
L 419.947125 159.82513 
" clip-path="url(#p279746e144)" style="fill: none; stroke: #f2f2f2; stroke-width: 0.8; stroke-linecap: round"/>
     </g>
     <g id="line2d_16">
      <g>
       <use xlink:href="#m02008f050a" x="62.827125" y="159.82513" style="fill: #262626; stroke: #262626"/>
      </g>
     </g>
     <g id="text_13">
      <text style="fill: #262626; font: 13.2px 'Arial', 'DejaVu Sans', 'Liberation Sans', 'Bitstream Vera Sans', sans-serif; text-anchor: end" x="54.527125" y="164.840098" transform="rotate(-0 54.527125 164.840098)">0.80</text>
     </g>
    </g>
    <g id="ytick_5">
     <g id="line2d_17">
      <path d="M 62.827125 124.692847 
L 419.947125 124.692847 
" clip-path="url(#p279746e144)" style="fill: none; stroke: #f2f2f2; stroke-width: 0.8; stroke-linecap: round"/>
     </g>
     <g id="line2d_18">
      <g>
       <use xlink:href="#m02008f050a" x="62.827125" y="124.692847" style="fill: #262626; stroke: #262626"/>
      </g>
     </g>
     <g id="text_14">
      <text style="fill: #262626; font: 13.2px 'Arial', 'DejaVu Sans', 'Liberation Sans', 'Bitstream Vera Sans', sans-serif; text-anchor: end" x="54.527125" y="129.707816" transform="rotate(-0 54.527125 129.707816)">0.85</text>
     </g>
    </g>
    <g id="ytick_6">
     <g id="line2d_19">
      <path d="M 62.827125 89.560565 
L 419.947125 89.560565 
" clip-path="url(#p279746e144)" style="fill: none; stroke: #f2f2f2; stroke-width: 0.8; stroke-linecap: round"/>
     </g>
     <g id="line2d_20">
      <g>
       <use xlink:href="#m02008f050a" x="62.827125" y="89.560565" style="fill: #262626; stroke: #262626"/>
      </g>
     </g>
     <g id="text_15">
      <text style="fill: #262626; font: 13.2px 'Arial', 'DejaVu Sans', 'Liberation Sans', 'Bitstream Vera Sans', sans-serif; text-anchor: end" x="54.527125" y="94.575534" transform="rotate(-0 54.527125 94.575534)">0.90</text>
     </g>
    </g>
    <g id="ytick_7">
     <g id="line2d_21">
      <path d="M 62.827125 54.428282 
L 419.947125 54.428282 
" clip-path="url(#p279746e144)" style="fill: none; stroke: #f2f2f2; stroke-width: 0.8; stroke-linecap: round"/>
     </g>
     <g id="line2d_22">
      <g>
       <use xlink:href="#m02008f050a" x="62.827125" y="54.428282" style="fill: #262626; stroke: #262626"/>
      </g>
     </g>
     <g id="text_16">
      <text style="fill: #262626; font: 13.2px 'Arial', 'DejaVu Sans', 'Liberation Sans', 'Bitstream Vera Sans', sans-serif; text-anchor: end" x="54.527125" y="59.443251" transform="rotate(-0 54.527125 59.443251)">0.95</text>
     </g>
    </g>
    <g id="ytick_8">
     <g id="line2d_23">
      <path d="M 62.827125 19.296 
L 419.947125 19.296 
" clip-path="url(#p279746e144)" style="fill: none; stroke: #f2f2f2; stroke-width: 0.8; stroke-linecap: round"/>
     </g>
     <g id="line2d_24">
      <g>
       <use xlink:href="#m02008f050a" x="62.827125" y="19.296" style="fill: #262626; stroke: #262626"/>
      </g>
     </g>
     <g id="text_17">
      <text style="fill: #262626; font: 13.2px 'Arial', 'DejaVu Sans', 'Liberation Sans', 'Bitstream Vera Sans', sans-serif; text-anchor: end" x="54.527125" y="24.310969" transform="rotate(-0 54.527125 24.310969)">1.00</text>
     </g>
    </g>
    <g id="text_18">
     <text style="fill: #262626; font: 14.4px 'Arial', 'DejaVu Sans', 'Liberation Sans', 'Bitstream Vera Sans', sans-serif; text-anchor: middle" x="18.14175" y="140.256" transform="rotate(-90 18.14175 140.256)">Precision</text>
    </g>
   </g>
   <g id="line2d_25">
    <path d="M 403.714398 19.296 
L 377.924185 19.296 
L 367.058567 19.296 
L 356.009539 19.296 
L 344.57816 19.296 
L 334.215377 19.296 
L 323.036588 19.296 
L 312.502065 21.998483 
L 303.285492 24.572277 
L 294.546328 27.02908 
L 286.310176 29.379065 
L 280.108139 31.631135 
L 274.217425 33.793121 
L 269.000311 35.871955 
L 262.984872 37.873794 
L 256.664198 39.804139 
L 249.427056 41.667921 
L 242.705332 43.469576 
L 235.511367 45.213114 
L 228.861055 48.591218 
L 223.190125 49.164472 
L 217.463685 49.77007 
L 211.445039 50.40182 
L 204.949939 51.054594 
L 198.715402 53.184929 
L 192.536189 55.290022 
L 186.041557 58.754744 
L 179.469094 62.157871 
L 173.218017 65.500664 
L 167.993399 68.784469 
L 162.85628 73.267659 
L 158.57737 77.666128 
L 154.029956 81.494646 
L 149.712286 85.268865 
L 145.213091 90.139424 
L 140.915115 96.059149 
L 137.06254 102.983879 
L 133.231512 109.411407 
L 129.152614 115.742302 
L 125.169021 121.632329 
L 122.375446 127.445218 
L 119.779976 134.183116 
L 117.307588 141.810905 
L 114.917364 149.038476 
L 112.769875 157.120065 
L 111.270816 163.891805 
L 109.737755 171.499385 
L 108.237768 178.763506 
L 106.91718 184.81825 
L 105.597035 190.582599 
L 104.271392 196.073359 
L 102.971643 201.521379 
L 101.769908 205.886929 
L 100.603966 211.047761 
L 99.353755 215.977664 
L 98.093054 219.894097 
L 96.650842 223.614907 
L 95.029539 226.378349 
L 93.185593 229.909033 
L 91.300175 233.268052 
L 89.641407 236.46414 
L 88.062049 240.391541 
L 86.372839 244.157582 
L 84.533703 247.769924 
L 82.815986 252.080297 
L 81.098096 257.069497 
L 79.059852 261.216 
" clip-path="url(#p279746e144)" style="fill: none; stroke: #808080; stroke-width: 2; stroke-linecap: round"/>
   </g>
   <g id="patch_3">
    <path d="M 62.827125 273.312 
L 62.827125 7.2 
" style="fill: none; stroke: #e6e6e6; stroke-linejoin: miter; stroke-linecap: square"/>
   </g>
   <g id="patch_4">
    <path d="M 419.947125 273.312 
L 419.947125 7.2 
" style="fill: none; stroke: #e6e6e6; stroke-linejoin: miter; stroke-linecap: square"/>
   </g>
   <g id="patch_5">
    <path d="M 62.827125 273.312 
L 419.947125 273.312 
" style="fill: none; stroke: #e6e6e6; stroke-linejoin: miter; stroke-linecap: square"/>
   </g>
   <g id="patch_6">
    <path d="M 62.827125 7.2 
L 419.947125 7.2 
" style="fill: none; stroke: #e6e6e6; stroke-linejoin: miter; stroke-linecap: square"/>
   </g>
  </g>
  <g id="axes_2">
   <g id="matplotlib.axis_3">
    <g id="ytick_9">
     <g id="line2d_26">
      <defs>
       <path id="m974fd31e67" d="M 0 0 
L 4.8 0 
" style="stroke: #262626"/>
      </defs>
      <g>
       <use xlink:href="#m974fd31e67" x="419.947125" y="250.219636" style="fill: #262626; stroke: #262626"/>
      </g>
     </g>
     <g id="text_19">
      <text style="fill: #262626; font: 13.2px 'Arial', 'DejaVu Sans', 'Liberation Sans', 'Bitstream Vera Sans', sans-serif; text-anchor: start" x="428.247125" y="255.234605" transform="rotate(-0 428.247125 255.234605)">10</text>
     </g>
    </g>
    <g id="ytick_10">
     <g id="line2d_27">
      <g>
       <use xlink:href="#m974fd31e67" x="419.947125" y="213.565091" style="fill: #262626; stroke: #262626"/>
      </g>
     </g>
     <g id="text_20">
      <text style="fill: #262626; font: 13.2px 'Arial', 'DejaVu Sans', 'Liberation Sans', 'Bitstream Vera Sans', sans-serif; text-anchor: start" x="428.247125" y="218.58006" transform="rotate(-0 428.247125 218.58006)">20</text>
     </g>
    </g>
    <g id="ytick_11">
     <g id="line2d_28">
      <g>
       <use xlink:href="#m974fd31e67" x="419.947125" y="176.910545" style="fill: #262626; stroke: #262626"/>
      </g>
     </g>
     <g id="text_21">
      <text style="fill: #262626; font: 13.2px 'Arial', 'DejaVu Sans', 'Liberation Sans', 'Bitstream Vera Sans', sans-serif; text-anchor: start" x="428.247125" y="181.925514" transform="rotate(-0 428.247125 181.925514)">30</text>
     </g>
    </g>
    <g id="ytick_12">
     <g id="line2d_29">
      <g>
       <use xlink:href="#m974fd31e67" x="419.947125" y="140.256" style="fill: #262626; stroke: #262626"/>
      </g>
     </g>
     <g id="text_22">
      <text style="fill: #262626; font: 13.2px 'Arial', 'DejaVu Sans', 'Liberation Sans', 'Bitstream Vera Sans', sans-serif; text-anchor: start" x="428.247125" y="145.270969" transform="rotate(-0 428.247125 145.270969)">40</text>
     </g>
    </g>
    <g id="ytick_13">
     <g id="line2d_30">
      <g>
       <use xlink:href="#m974fd31e67" x="419.947125" y="103.601455" style="fill: #262626; stroke: #262626"/>
      </g>
     </g>
     <g id="text_23">
      <text style="fill: #262626; font: 13.2px 'Arial', 'DejaVu Sans', 'Liberation Sans', 'Bitstream Vera Sans', sans-serif; text-anchor: start" x="428.247125" y="108.616423" transform="rotate(-0 428.247125 108.616423)">50</text>
     </g>
    </g>
    <g id="ytick_14">
     <g id="line2d_31">
      <g>
       <use xlink:href="#m974fd31e67" x="419.947125" y="66.946909" style="fill: #262626; stroke: #262626"/>
      </g>
     </g>
     <g id="text_24">
      <text style="fill: #262626; font: 13.2px 'Arial', 'DejaVu Sans', 'Liberation Sans', 'Bitstream Vera Sans', sans-serif; text-anchor: start" x="428.247125" y="71.961878" transform="rotate(-0 428.247125 71.961878)">60</text>
     </g>
    </g>
    <g id="ytick_15">
     <g id="line2d_32">
      <g>
       <use xlink:href="#m974fd31e67" x="419.947125" y="30.292364" style="fill: #262626; stroke: #262626"/>
      </g>
     </g>
     <g id="text_25">
      <text style="fill: #262626; font: 13.2px 'Arial', 'DejaVu Sans', 'Liberation Sans', 'Bitstream Vera Sans', sans-serif; text-anchor: start" x="428.247125" y="35.307332" transform="rotate(-0 428.247125 35.307332)">70</text>
     </g>
    </g>
    <g id="text_26">
     <text style="fill: #ff0000; font: 14.4px 'Arial', 'DejaVu Sans', 'Liberation Sans', 'Bitstream Vera Sans', sans-serif; text-anchor: middle" x="459.985875" y="140.256" transform="rotate(-90 459.985875 140.256)">Interactions Above Magratio</text>
    </g>
   </g>
   <g id="line2d_33">
    <path d="M 403.714398 261.216 
L 377.924185 257.550545 
L 367.058567 253.885091 
L 356.009539 250.219636 
L 344.57816 246.554182 
L 334.215377 242.888727 
L 323.036588 239.223273 
L 312.502065 235.557818 
L 303.285492 231.892364 
L 294.546328 228.226909 
L 286.310176 224.561455 
L 280.108139 220.896 
L 274.217425 217.230545 
L 269.000311 213.565091 
L 262.984872 209.899636 
L 256.664198 206.234182 
L 249.427056 202.568727 
L 242.705332 198.903273 
L 235.511367 195.237818 
L 228.861055 191.572364 
L 223.190125 187.906909 
L 217.463685 184.241455 
L 211.445039 180.576 
L 204.949939 176.910545 
L 198.715402 173.245091 
L 192.536189 169.579636 
L 186.041557 165.914182 
L 179.469094 162.248727 
L 173.218017 158.583273 
L 167.993399 154.917818 
L 162.85628 151.252364 
L 158.57737 147.586909 
L 154.029956 143.921455 
L 149.712286 140.256 
L 145.213091 136.590545 
L 140.915115 132.925091 
L 137.06254 129.259636 
L 133.231512 125.594182 
L 129.152614 121.928727 
L 125.169021 118.263273 
L 122.375446 114.597818 
L 119.779976 110.932364 
L 117.307588 107.266909 
L 114.917364 103.601455 
L 112.769875 99.936 
L 111.270816 96.270545 
L 109.737755 92.605091 
L 108.237768 88.939636 
L 106.91718 85.274182 
L 105.597035 81.608727 
L 104.271392 77.943273 
L 102.971643 74.277818 
L 101.769908 70.612364 
L 100.603966 66.946909 
L 99.353755 63.281455 
L 98.093054 59.616 
L 96.650842 55.950545 
L 95.029539 52.285091 
L 93.185593 48.619636 
L 91.300175 44.954182 
L 89.641407 41.288727 
L 88.062049 37.623273 
L 86.372839 33.957818 
L 84.533703 30.292364 
L 82.815986 26.626909 
L 81.098096 22.961455 
L 79.059852 19.296 
" clip-path="url(#p279746e144)" style="fill: none; stroke: #ff0000; stroke-width: 2; stroke-linecap: round"/>
   </g>
   <g id="patch_7">
    <path d="M 62.827125 273.312 
L 62.827125 7.2 
" style="fill: none; stroke: #e6e6e6; stroke-linejoin: miter; stroke-linecap: square"/>
   </g>
   <g id="patch_8">
    <path d="M 419.947125 273.312 
L 419.947125 7.2 
" style="fill: none; stroke: #e6e6e6; stroke-linejoin: miter; stroke-linecap: square"/>
   </g>
   <g id="patch_9">
    <path d="M 62.827125 273.312 
L 419.947125 273.312 
" style="fill: none; stroke: #e6e6e6; stroke-linejoin: miter; stroke-linecap: square"/>
   </g>
   <g id="patch_10">
    <path d="M 62.827125 7.2 
L 419.947125 7.2 
" style="fill: none; stroke: #e6e6e6; stroke-linejoin: miter; stroke-linecap: square"/>
   </g>
  </g>
 </g>
 <defs>
  <clipPath id="p279746e144">
   <rect x="62.827125" y="7.2" width="357.12" height="266.112"/>
  </clipPath>
 </defs>
</svg>
