<?xml version="1.0" encoding="utf-8" standalone="no"?>
<!DOCTYPE svg PUBLIC "-//W3C//DTD SVG 1.1//EN"
  "http://www.w3.org/Graphics/SVG/1.1/DTD/svg11.dtd">
<svg xmlns:xlink="http://www.w3.org/1999/xlink" width="845.967385pt" height="847.252875pt" viewBox="0 0 845.967385 847.252875" xmlns="http://www.w3.org/2000/svg" version="1.1">
 <metadata>
  <rdf:RDF xmlns:dc="http://purl.org/dc/elements/1.1/" xmlns:cc="http://creativecommons.org/ns#" xmlns:rdf="http://www.w3.org/1999/02/22-rdf-syntax-ns#">
   <cc:Work>
    <dc:type rdf:resource="http://purl.org/dc/dcmitype/StillImage"/>
    <dc:date>2024-09-29T19:44:33.712267</dc:date>
    <dc:format>image/svg+xml</dc:format>
    <dc:creator>
     <cc:Agent>
      <dc:title>Matplotlib v3.8.3, https://matplotlib.org/</dc:title>
     </cc:Agent>
    </dc:creator>
   </cc:Work>
  </rdf:RDF>
 </metadata>
 <defs>
  <style type="text/css">*{stroke-linejoin: round; stroke-linecap: butt}</style>
 </defs>
 <g id="figure_1">
  <g id="patch_1">
   <path d="M 0 847.252875 
L 845.967385 847.252875 
L 845.967385 0 
L 0 0 
z
" style="fill: #ffffff"/>
  </g>
  <g id="axes_1">
   <g id="patch_2">
    <path d="M 62.827125 403.21375 
L 426.011419 403.21375 
L 426.011419 24.14175 
L 62.827125 24.14175 
z
" style="fill: #fcfcfc"/>
   </g>
   <g id="matplotlib.axis_1">
    <g id="xtick_1">
     <g id="line2d_1">
      <path d="M 112.169713 403.21375 
L 112.169713 24.14175 
" clip-path="url(#pfecf129862)" style="fill: none; stroke: #f2f2f2; stroke-width: 0.8; stroke-linecap: round"/>
     </g>
     <g id="text_1">
      <!-- $\mathdefault{10^{-7}}$ -->
      <g style="fill: #262626" transform="translate(96.659713 421.543687) scale(0.132 -0.132)">
       <defs>
        <path id="DejaVuSans-31" d="M 794 531 
L 1825 531 
L 1825 4091 
L 703 3866 
L 703 4441 
L 1819 4666 
L 2450 4666 
L 2450 531 
L 3481 531 
L 3481 0 
L 794 0 
L 794 531 
z
" transform="scale(0.015625)"/>
        <path id="DejaVuSans-30" d="M 2034 4250 
Q 1547 4250 1301 3770 
Q 1056 3291 1056 2328 
Q 1056 1369 1301 889 
Q 1547 409 2034 409 
Q 2525 409 2770 889 
Q 3016 1369 3016 2328 
Q 3016 3291 2770 3770 
Q 2525 4250 2034 4250 
z
M 2034 4750 
Q 2819 4750 3233 4129 
Q 3647 3509 3647 2328 
Q 3647 1150 3233 529 
Q 2819 -91 2034 -91 
Q 1250 -91 836 529 
Q 422 1150 422 2328 
Q 422 3509 836 4129 
Q 1250 4750 2034 4750 
z
" transform="scale(0.015625)"/>
        <path id="DejaVuSans-2212" d="M 678 2272 
L 4684 2272 
L 4684 1741 
L 678 1741 
L 678 2272 
z
" transform="scale(0.015625)"/>
        <path id="DejaVuSans-37" d="M 525 4666 
L 3525 4666 
L 3525 4397 
L 1831 0 
L 1172 0 
L 2766 4134 
L 525 4134 
L 525 4666 
z
" transform="scale(0.015625)"/>
       </defs>
       <use xlink:href="#DejaVuSans-31" transform="translate(0 0.684375)"/>
       <use xlink:href="#DejaVuSans-30" transform="translate(63.623047 0.684375)"/>
       <use xlink:href="#DejaVuSans-2212" transform="translate(128.203125 38.965625) scale(0.7)"/>
       <use xlink:href="#DejaVuSans-37" transform="translate(186.855469 38.965625) scale(0.7)"/>
      </g>
     </g>
    </g>
    <g id="xtick_2">
     <g id="line2d_2">
      <path d="M 196.379581 403.21375 
L 196.379581 24.14175 
" clip-path="url(#pfecf129862)" style="fill: none; stroke: #f2f2f2; stroke-width: 0.8; stroke-linecap: round"/>
     </g>
     <g id="text_2">
      <!-- $\mathdefault{10^{-6}}$ -->
      <g style="fill: #262626" transform="translate(180.869581 421.543687) scale(0.132 -0.132)">
       <defs>
        <path id="DejaVuSans-36" d="M 2113 2584 
Q 1688 2584 1439 2293 
Q 1191 2003 1191 1497 
Q 1191 994 1439 701 
Q 1688 409 2113 409 
Q 2538 409 2786 701 
Q 3034 994 3034 1497 
Q 3034 2003 2786 2293 
Q 2538 2584 2113 2584 
z
M 3366 4563 
L 3366 3988 
Q 3128 4100 2886 4159 
Q 2644 4219 2406 4219 
Q 1781 4219 1451 3797 
Q 1122 3375 1075 2522 
Q 1259 2794 1537 2939 
Q 1816 3084 2150 3084 
Q 2853 3084 3261 2657 
Q 3669 2231 3669 1497 
Q 3669 778 3244 343 
Q 2819 -91 2113 -91 
Q 1303 -91 875 529 
Q 447 1150 447 2328 
Q 447 3434 972 4092 
Q 1497 4750 2381 4750 
Q 2619 4750 2861 4703 
Q 3103 4656 3366 4563 
z
" transform="scale(0.015625)"/>
       </defs>
       <use xlink:href="#DejaVuSans-31" transform="translate(0 0.765625)"/>
       <use xlink:href="#DejaVuSans-30" transform="translate(63.623047 0.765625)"/>
       <use xlink:href="#DejaVuSans-2212" transform="translate(128.203125 39.046875) scale(0.7)"/>
       <use xlink:href="#DejaVuSans-36" transform="translate(186.855469 39.046875) scale(0.7)"/>
      </g>
     </g>
    </g>
    <g id="xtick_3">
     <g id="line2d_3">
      <path d="M 280.58945 403.21375 
L 280.58945 24.14175 
" clip-path="url(#pfecf129862)" style="fill: none; stroke: #f2f2f2; stroke-width: 0.8; stroke-linecap: round"/>
     </g>
     <g id="text_3">
      <!-- $\mathdefault{10^{-5}}$ -->
      <g style="fill: #262626" transform="translate(265.07945 421.543687) scale(0.132 -0.132)">
       <defs>
        <path id="DejaVuSans-35" d="M 691 4666 
L 3169 4666 
L 3169 4134 
L 1269 4134 
L 1269 2991 
Q 1406 3038 1543 3061 
Q 1681 3084 1819 3084 
Q 2600 3084 3056 2656 
Q 3513 2228 3513 1497 
Q 3513 744 3044 326 
Q 2575 -91 1722 -91 
Q 1428 -91 1123 -41 
Q 819 9 494 109 
L 494 744 
Q 775 591 1075 516 
Q 1375 441 1709 441 
Q 2250 441 2565 725 
Q 2881 1009 2881 1497 
Q 2881 1984 2565 2268 
Q 2250 2553 1709 2553 
Q 1456 2553 1204 2497 
Q 953 2441 691 2322 
L 691 4666 
z
" transform="scale(0.015625)"/>
       </defs>
       <use xlink:href="#DejaVuSans-31" transform="translate(0 0.684375)"/>
       <use xlink:href="#DejaVuSans-30" transform="translate(63.623047 0.684375)"/>
       <use xlink:href="#DejaVuSans-2212" transform="translate(128.203125 38.965625) scale(0.7)"/>
       <use xlink:href="#DejaVuSans-35" transform="translate(186.855469 38.965625) scale(0.7)"/>
      </g>
     </g>
    </g>
    <g id="xtick_4">
     <g id="line2d_4">
      <path d="M 364.799318 403.21375 
L 364.799318 24.14175 
" clip-path="url(#pfecf129862)" style="fill: none; stroke: #f2f2f2; stroke-width: 0.8; stroke-linecap: round"/>
     </g>
     <g id="text_4">
      <!-- $\mathdefault{10^{-4}}$ -->
      <g style="fill: #262626" transform="translate(349.289318 421.543687) scale(0.132 -0.132)">
       <defs>
        <path id="DejaVuSans-34" d="M 2419 4116 
L 825 1625 
L 2419 1625 
L 2419 4116 
z
M 2253 4666 
L 3047 4666 
L 3047 1625 
L 3713 1625 
L 3713 1100 
L 3047 1100 
L 3047 0 
L 2419 0 
L 2419 1100 
L 313 1100 
L 313 1709 
L 2253 4666 
z
" transform="scale(0.015625)"/>
       </defs>
       <use xlink:href="#DejaVuSans-31" transform="translate(0 0.684375)"/>
       <use xlink:href="#DejaVuSans-30" transform="translate(63.623047 0.684375)"/>
       <use xlink:href="#DejaVuSans-2212" transform="translate(128.203125 38.965625) scale(0.7)"/>
       <use xlink:href="#DejaVuSans-34" transform="translate(186.855469 38.965625) scale(0.7)"/>
      </g>
     </g>
    </g>
    <g id="xtick_5"/>
    <g id="xtick_6"/>
    <g id="xtick_7"/>
    <g id="xtick_8"/>
    <g id="xtick_9"/>
    <g id="xtick_10"/>
    <g id="xtick_11"/>
    <g id="xtick_12"/>
    <g id="xtick_13"/>
    <g id="xtick_14"/>
    <g id="xtick_15"/>
    <g id="xtick_16"/>
    <g id="xtick_17"/>
    <g id="xtick_18"/>
    <g id="xtick_19"/>
    <g id="xtick_20"/>
    <g id="xtick_21"/>
    <g id="xtick_22"/>
    <g id="xtick_23"/>
    <g id="xtick_24"/>
    <g id="xtick_25"/>
    <g id="xtick_26"/>
    <g id="xtick_27"/>
    <g id="xtick_28"/>
    <g id="xtick_29"/>
    <g id="xtick_30"/>
    <g id="xtick_31"/>
    <g id="xtick_32"/>
    <g id="xtick_33"/>
    <g id="xtick_34"/>
    <g id="xtick_35"/>
    <g id="xtick_36"/>
    <g id="xtick_37"/>
    <g id="xtick_38"/>
    <g id="xtick_39"/>
   </g>
   <g id="matplotlib.axis_2">
    <g id="ytick_1">
     <g id="line2d_5">
      <path d="M 62.827125 403.21375 
L 426.011419 403.21375 
" clip-path="url(#pfecf129862)" style="fill: none; stroke: #f2f2f2; stroke-width: 0.8; stroke-linecap: round"/>
     </g>
     <g id="text_5">
      <!-- 0 -->
      <g style="fill: #262626" transform="translate(46.128625 408.228719) scale(0.132 -0.132)">
       <use xlink:href="#DejaVuSans-30"/>
      </g>
     </g>
    </g>
    <g id="ytick_2">
     <g id="line2d_6">
      <path d="M 62.827125 338.745723 
L 426.011419 338.745723 
" clip-path="url(#pfecf129862)" style="fill: none; stroke: #f2f2f2; stroke-width: 0.8; stroke-linecap: round"/>
     </g>
     <g id="text_6">
      <!-- 20 -->
      <g style="fill: #262626" transform="translate(37.730125 343.760692) scale(0.132 -0.132)">
       <defs>
        <path id="DejaVuSans-32" d="M 1228 531 
L 3431 531 
L 3431 0 
L 469 0 
L 469 531 
Q 828 903 1448 1529 
Q 2069 2156 2228 2338 
Q 2531 2678 2651 2914 
Q 2772 3150 2772 3378 
Q 2772 3750 2511 3984 
Q 2250 4219 1831 4219 
Q 1534 4219 1204 4116 
Q 875 4013 500 3803 
L 500 4441 
Q 881 4594 1212 4672 
Q 1544 4750 1819 4750 
Q 2544 4750 2975 4387 
Q 3406 4025 3406 3419 
Q 3406 3131 3298 2873 
Q 3191 2616 2906 2266 
Q 2828 2175 2409 1742 
Q 1991 1309 1228 531 
z
" transform="scale(0.015625)"/>
       </defs>
       <use xlink:href="#DejaVuSans-32"/>
       <use xlink:href="#DejaVuSans-30" x="63.623047"/>
      </g>
     </g>
    </g>
    <g id="ytick_3">
     <g id="line2d_7">
      <path d="M 62.827125 274.277696 
L 426.011419 274.277696 
" clip-path="url(#pfecf129862)" style="fill: none; stroke: #f2f2f2; stroke-width: 0.8; stroke-linecap: round"/>
     </g>
     <g id="text_7">
      <!-- 40 -->
      <g style="fill: #262626" transform="translate(37.730125 279.292664) scale(0.132 -0.132)">
       <use xlink:href="#DejaVuSans-34"/>
       <use xlink:href="#DejaVuSans-30" x="63.623047"/>
      </g>
     </g>
    </g>
    <g id="ytick_4">
     <g id="line2d_8">
      <path d="M 62.827125 209.809668 
L 426.011419 209.809668 
" clip-path="url(#pfecf129862)" style="fill: none; stroke: #f2f2f2; stroke-width: 0.8; stroke-linecap: round"/>
     </g>
     <g id="text_8">
      <!-- 60 -->
      <g style="fill: #262626" transform="translate(37.730125 214.824637) scale(0.132 -0.132)">
       <use xlink:href="#DejaVuSans-36"/>
       <use xlink:href="#DejaVuSans-30" x="63.623047"/>
      </g>
     </g>
    </g>
    <g id="ytick_5">
     <g id="line2d_9">
      <path d="M 62.827125 145.341641 
L 426.011419 145.341641 
" clip-path="url(#pfecf129862)" style="fill: none; stroke: #f2f2f2; stroke-width: 0.8; stroke-linecap: round"/>
     </g>
     <g id="text_9">
      <!-- 80 -->
      <g style="fill: #262626" transform="translate(37.730125 150.35661) scale(0.132 -0.132)">
       <defs>
        <path id="DejaVuSans-38" d="M 2034 2216 
Q 1584 2216 1326 1975 
Q 1069 1734 1069 1313 
Q 1069 891 1326 650 
Q 1584 409 2034 409 
Q 2484 409 2743 651 
Q 3003 894 3003 1313 
Q 3003 1734 2745 1975 
Q 2488 2216 2034 2216 
z
M 1403 2484 
Q 997 2584 770 2862 
Q 544 3141 544 3541 
Q 544 4100 942 4425 
Q 1341 4750 2034 4750 
Q 2731 4750 3128 4425 
Q 3525 4100 3525 3541 
Q 3525 3141 3298 2862 
Q 3072 2584 2669 2484 
Q 3125 2378 3379 2068 
Q 3634 1759 3634 1313 
Q 3634 634 3220 271 
Q 2806 -91 2034 -91 
Q 1263 -91 848 271 
Q 434 634 434 1313 
Q 434 1759 690 2068 
Q 947 2378 1403 2484 
z
M 1172 3481 
Q 1172 3119 1398 2916 
Q 1625 2713 2034 2713 
Q 2441 2713 2670 2916 
Q 2900 3119 2900 3481 
Q 2900 3844 2670 4047 
Q 2441 4250 2034 4250 
Q 1625 4250 1398 4047 
Q 1172 3844 1172 3481 
z
" transform="scale(0.015625)"/>
       </defs>
       <use xlink:href="#DejaVuSans-38"/>
       <use xlink:href="#DejaVuSans-30" x="63.623047"/>
      </g>
     </g>
    </g>
    <g id="ytick_6">
     <g id="line2d_10">
      <path d="M 62.827125 80.873614 
L 426.011419 80.873614 
" clip-path="url(#pfecf129862)" style="fill: none; stroke: #f2f2f2; stroke-width: 0.8; stroke-linecap: round"/>
     </g>
     <g id="text_10">
      <!-- 100 -->
      <g style="fill: #262626" transform="translate(29.331625 85.888583) scale(0.132 -0.132)">
       <use xlink:href="#DejaVuSans-31"/>
       <use xlink:href="#DejaVuSans-30" x="63.623047"/>
       <use xlink:href="#DejaVuSans-30" x="127.246094"/>
      </g>
     </g>
    </g>
    <g id="text_11">
     <!-- DMSO -->
     <g style="fill: #262626" transform="translate(22.336875 235.672625) rotate(-90) scale(0.144 -0.144)">
      <defs>
       <path id="DejaVuSans-44" d="M 1259 4147 
L 1259 519 
L 2022 519 
Q 2988 519 3436 956 
Q 3884 1394 3884 2338 
Q 3884 3275 3436 3711 
Q 2988 4147 2022 4147 
L 1259 4147 
z
M 628 4666 
L 1925 4666 
Q 3281 4666 3915 4102 
Q 4550 3538 4550 2338 
Q 4550 1131 3912 565 
Q 3275 0 1925 0 
L 628 0 
L 628 4666 
z
" transform="scale(0.015625)"/>
       <path id="DejaVuSans-4d" d="M 628 4666 
L 1569 4666 
L 2759 1491 
L 3956 4666 
L 4897 4666 
L 4897 0 
L 4281 0 
L 4281 4097 
L 3078 897 
L 2444 897 
L 1241 4097 
L 1241 0 
L 628 0 
L 628 4666 
z
" transform="scale(0.015625)"/>
       <path id="DejaVuSans-53" d="M 3425 4513 
L 3425 3897 
Q 3066 4069 2747 4153 
Q 2428 4238 2131 4238 
Q 1616 4238 1336 4038 
Q 1056 3838 1056 3469 
Q 1056 3159 1242 3001 
Q 1428 2844 1947 2747 
L 2328 2669 
Q 3034 2534 3370 2195 
Q 3706 1856 3706 1288 
Q 3706 609 3251 259 
Q 2797 -91 1919 -91 
Q 1588 -91 1214 -16 
Q 841 59 441 206 
L 441 856 
Q 825 641 1194 531 
Q 1563 422 1919 422 
Q 2459 422 2753 634 
Q 3047 847 3047 1241 
Q 3047 1584 2836 1778 
Q 2625 1972 2144 2069 
L 1759 2144 
Q 1053 2284 737 2584 
Q 422 2884 422 3419 
Q 422 4038 858 4394 
Q 1294 4750 2059 4750 
Q 2388 4750 2728 4690 
Q 3069 4631 3425 4513 
z
" transform="scale(0.015625)"/>
       <path id="DejaVuSans-4f" d="M 2522 4238 
Q 1834 4238 1429 3725 
Q 1025 3213 1025 2328 
Q 1025 1447 1429 934 
Q 1834 422 2522 422 
Q 3209 422 3611 934 
Q 4013 1447 4013 2328 
Q 4013 3213 3611 3725 
Q 3209 4238 2522 4238 
z
M 2522 4750 
Q 3503 4750 4090 4092 
Q 4678 3434 4678 2328 
Q 4678 1225 4090 567 
Q 3503 -91 2522 -91 
Q 1538 -91 948 565 
Q 359 1222 359 2328 
Q 359 3434 948 4092 
Q 1538 4750 2522 4750 
z
" transform="scale(0.015625)"/>
      </defs>
      <use xlink:href="#DejaVuSans-44"/>
      <use xlink:href="#DejaVuSans-4d" x="77.001953"/>
      <use xlink:href="#DejaVuSans-53" x="163.28125"/>
      <use xlink:href="#DejaVuSans-4f" x="226.757812"/>
     </g>
    </g>
   </g>
   <g id="PolyCollection_1">
    <defs>
     <path id="m5396e63666" d="M 79.335502 -453.709329 
L 79.335502 -444.039125 
L 92.542204 -444.039125 
L 92.542204 -444.039125 
L 105.748905 -444.039125 
L 105.748905 -444.039125 
L 118.955607 -444.039125 
L 118.955607 -444.039125 
L 132.162308 -444.039125 
L 132.162308 -444.039125 
L 145.36901 -444.039125 
L 145.36901 -444.039125 
L 158.575712 -444.039125 
L 158.575712 -444.039125 
L 171.782413 -444.039125 
L 171.782413 -444.039125 
L 184.989115 -444.039125 
L 184.989115 -444.039125 
L 198.195816 -444.039125 
L 198.195816 -444.039125 
L 211.402518 -444.039125 
L 211.402518 -444.039125 
L 224.60922 -444.039125 
L 224.60922 -444.039125 
L 237.815921 -444.039125 
L 237.815921 -444.039125 
L 251.022623 -444.039125 
L 251.022623 -444.039125 
L 264.229324 -444.039125 
L 264.229324 -444.039125 
L 277.436026 -444.039125 
L 277.436026 -444.039125 
L 290.642728 -444.039125 
L 290.642728 -444.039125 
L 303.849429 -444.039125 
L 303.849429 -444.039125 
L 317.056131 -444.039125 
L 317.056131 -444.039125 
L 330.262832 -444.039125 
L 330.262832 -444.039125 
L 343.469534 -444.039125 
L 343.469534 -444.039125 
L 356.676236 -444.039125 
L 356.676236 -444.039125 
L 369.882937 -444.039125 
L 369.882937 -444.039125 
L 383.089639 -444.039125 
L 383.089639 -444.039125 
L 396.29634 -444.039125 
L 396.29634 -444.039125 
L 409.503042 -444.039125 
L 409.503042 -444.039125 
L 409.503042 -444.039125 
L 409.503042 -444.039125 
L 409.503042 -444.039125 
L 396.29634 -444.039125 
L 396.29634 -444.039125 
L 383.089639 -444.039125 
L 383.089639 -444.039125 
L 369.882937 -444.039125 
L 369.882937 -444.039125 
L 356.676236 -444.039125 
L 356.676236 -447.262526 
L 343.469534 -447.262526 
L 343.469534 -444.039125 
L 330.262832 -444.039125 
L 330.262832 -476.273139 
L 317.056131 -476.273139 
L 317.056131 -508.507152 
L 303.849429 -508.507152 
L 303.849429 -572.975179 
L 290.642728 -572.975179 
L 290.642728 -630.996404 
L 277.436026 -630.996404 
L 277.436026 -759.932458 
L 264.229324 -759.932458 
L 264.229324 -698.687832 
L 251.022623 -698.687832 
L 251.022623 -805.060077 
L 237.815921 -805.060077 
L 237.815921 -763.15586 
L 224.60922 -763.15586 
L 224.60922 -711.581438 
L 211.402518 -711.581438 
L 211.402518 -682.570826 
L 198.195816 -682.570826 
L 198.195816 -553.634771 
L 184.989115 -553.634771 
L 184.989115 -550.41137 
L 171.782413 -550.41137 
L 171.782413 -479.49654 
L 158.575712 -479.49654 
L 158.575712 -482.719941 
L 145.36901 -482.719941 
L 145.36901 -456.93273 
L 132.162308 -456.93273 
L 132.162308 -447.262526 
L 118.955607 -447.262526 
L 118.955607 -444.039125 
L 105.748905 -444.039125 
L 105.748905 -444.039125 
L 92.542204 -444.039125 
L 92.542204 -453.709329 
L 79.335502 -453.709329 
z
" style="stroke: #000000; stroke-width: 0.8"/>
    </defs>
    <g clip-path="url(#pfecf129862)">
     <use xlink:href="#m5396e63666" x="0" y="847.252875" style="fill-opacity: 0.25; stroke: #000000; stroke-width: 0.8"/>
    </g>
   </g>
   <g id="PolyCollection_2">
    <defs>
     <path id="md6733179b4" d="M 79.335502 -444.039125 
L 79.335502 -444.039125 
L 92.542204 -444.039125 
L 92.542204 -444.039125 
L 105.748905 -444.039125 
L 105.748905 -444.039125 
L 118.955607 -444.039125 
L 118.955607 -444.039125 
L 132.162308 -444.039125 
L 132.162308 -444.039125 
L 145.36901 -444.039125 
L 145.36901 -444.039125 
L 158.575712 -444.039125 
L 158.575712 -444.039125 
L 171.782413 -444.039125 
L 171.782413 -444.039125 
L 184.989115 -444.039125 
L 184.989115 -444.039125 
L 198.195816 -444.039125 
L 198.195816 -444.039125 
L 211.402518 -444.039125 
L 211.402518 -444.039125 
L 224.60922 -444.039125 
L 224.60922 -444.039125 
L 237.815921 -444.039125 
L 237.815921 -444.039125 
L 251.022623 -444.039125 
L 251.022623 -444.039125 
L 264.229324 -444.039125 
L 264.229324 -444.039125 
L 277.436026 -444.039125 
L 277.436026 -444.039125 
L 290.642728 -444.039125 
L 290.642728 -444.039125 
L 303.849429 -444.039125 
L 303.849429 -444.039125 
L 317.056131 -444.039125 
L 317.056131 -444.039125 
L 330.262832 -444.039125 
L 330.262832 -444.039125 
L 343.469534 -444.039125 
L 343.469534 -444.039125 
L 356.676236 -444.039125 
L 356.676236 -444.039125 
L 369.882937 -444.039125 
L 369.882937 -444.039125 
L 383.089639 -444.039125 
L 383.089639 -444.039125 
L 396.29634 -444.039125 
L 396.29634 -444.039125 
L 409.503042 -444.039125 
L 409.503042 -444.039125 
L 409.503042 -450.485928 
L 409.503042 -450.485928 
L 409.503042 -450.485928 
L 396.29634 -450.485928 
L 396.29634 -460.156132 
L 383.089639 -460.156132 
L 383.089639 -582.645384 
L 369.882937 -582.645384 
L 369.882937 -605.209193 
L 356.676236 -605.209193 
L 356.676236 -666.453819 
L 343.469534 -666.453819 
L 343.469534 -630.996404 
L 330.262832 -630.996404 
L 330.262832 -627.773003 
L 317.056131 -627.773003 
L 317.056131 -566.528377 
L 303.849429 -566.528377 
L 303.849429 -524.624159 
L 290.642728 -524.624159 
L 290.642728 -518.177356 
L 277.436026 -518.177356 
L 277.436026 -463.379533 
L 264.229324 -463.379533 
L 264.229324 -456.93273 
L 251.022623 -456.93273 
L 251.022623 -453.709329 
L 237.815921 -453.709329 
L 237.815921 -450.485928 
L 224.60922 -450.485928 
L 224.60922 -444.039125 
L 211.402518 -444.039125 
L 211.402518 -447.262526 
L 198.195816 -447.262526 
L 198.195816 -444.039125 
L 184.989115 -444.039125 
L 184.989115 -444.039125 
L 171.782413 -444.039125 
L 171.782413 -444.039125 
L 158.575712 -444.039125 
L 158.575712 -444.039125 
L 145.36901 -444.039125 
L 145.36901 -444.039125 
L 132.162308 -444.039125 
L 132.162308 -444.039125 
L 118.955607 -444.039125 
L 118.955607 -444.039125 
L 105.748905 -444.039125 
L 105.748905 -444.039125 
L 92.542204 -444.039125 
L 92.542204 -444.039125 
L 79.335502 -444.039125 
z
" style="stroke: #ff0000; stroke-width: 0.8"/>
    </defs>
    <g clip-path="url(#pfecf129862)">
     <use xlink:href="#md6733179b4" x="0" y="847.252875" style="fill: #ff0000; fill-opacity: 0.25; stroke: #ff0000; stroke-width: 0.8"/>
    </g>
   </g>
   <g id="patch_3">
    <path d="M 62.827125 403.21375 
L 62.827125 24.14175 
" style="fill: none; stroke: #e6e6e6; stroke-linejoin: miter; stroke-linecap: square"/>
   </g>
   <g id="patch_4">
    <path d="M 426.011419 403.21375 
L 426.011419 24.14175 
" style="fill: none; stroke: #e6e6e6; stroke-linejoin: miter; stroke-linecap: square"/>
   </g>
   <g id="patch_5">
    <path d="M 62.827125 403.21375 
L 426.011419 403.21375 
" style="fill: none; stroke: #e6e6e6; stroke-linejoin: miter; stroke-linecap: square"/>
   </g>
   <g id="patch_6">
    <path d="M 62.827125 24.14175 
L 426.011419 24.14175 
" style="fill: none; stroke: #e6e6e6; stroke-linejoin: miter; stroke-linecap: square"/>
   </g>
   <g id="text_12">
    <!-- Variance Across Barcodes -->
    <g style="fill: #262626" transform="translate(152.009522 18.14175) scale(0.144 -0.144)">
     <defs>
      <path id="DejaVuSans-56" d="M 1831 0 
L 50 4666 
L 709 4666 
L 2188 738 
L 3669 4666 
L 4325 4666 
L 2547 0 
L 1831 0 
z
" transform="scale(0.015625)"/>
      <path id="DejaVuSans-61" d="M 2194 1759 
Q 1497 1759 1228 1600 
Q 959 1441 959 1056 
Q 959 750 1161 570 
Q 1363 391 1709 391 
Q 2188 391 2477 730 
Q 2766 1069 2766 1631 
L 2766 1759 
L 2194 1759 
z
M 3341 1997 
L 3341 0 
L 2766 0 
L 2766 531 
Q 2569 213 2275 61 
Q 1981 -91 1556 -91 
Q 1019 -91 701 211 
Q 384 513 384 1019 
Q 384 1609 779 1909 
Q 1175 2209 1959 2209 
L 2766 2209 
L 2766 2266 
Q 2766 2663 2505 2880 
Q 2244 3097 1772 3097 
Q 1472 3097 1187 3025 
Q 903 2953 641 2809 
L 641 3341 
Q 956 3463 1253 3523 
Q 1550 3584 1831 3584 
Q 2591 3584 2966 3190 
Q 3341 2797 3341 1997 
z
" transform="scale(0.015625)"/>
      <path id="DejaVuSans-72" d="M 2631 2963 
Q 2534 3019 2420 3045 
Q 2306 3072 2169 3072 
Q 1681 3072 1420 2755 
Q 1159 2438 1159 1844 
L 1159 0 
L 581 0 
L 581 3500 
L 1159 3500 
L 1159 2956 
Q 1341 3275 1631 3429 
Q 1922 3584 2338 3584 
Q 2397 3584 2469 3576 
Q 2541 3569 2628 3553 
L 2631 2963 
z
" transform="scale(0.015625)"/>
      <path id="DejaVuSans-69" d="M 603 3500 
L 1178 3500 
L 1178 0 
L 603 0 
L 603 3500 
z
M 603 4863 
L 1178 4863 
L 1178 4134 
L 603 4134 
L 603 4863 
z
" transform="scale(0.015625)"/>
      <path id="DejaVuSans-6e" d="M 3513 2113 
L 3513 0 
L 2938 0 
L 2938 2094 
Q 2938 2591 2744 2837 
Q 2550 3084 2163 3084 
Q 1697 3084 1428 2787 
Q 1159 2491 1159 1978 
L 1159 0 
L 581 0 
L 581 3500 
L 1159 3500 
L 1159 2956 
Q 1366 3272 1645 3428 
Q 1925 3584 2291 3584 
Q 2894 3584 3203 3211 
Q 3513 2838 3513 2113 
z
" transform="scale(0.015625)"/>
      <path id="DejaVuSans-63" d="M 3122 3366 
L 3122 2828 
Q 2878 2963 2633 3030 
Q 2388 3097 2138 3097 
Q 1578 3097 1268 2742 
Q 959 2388 959 1747 
Q 959 1106 1268 751 
Q 1578 397 2138 397 
Q 2388 397 2633 464 
Q 2878 531 3122 666 
L 3122 134 
Q 2881 22 2623 -34 
Q 2366 -91 2075 -91 
Q 1284 -91 818 406 
Q 353 903 353 1747 
Q 353 2603 823 3093 
Q 1294 3584 2113 3584 
Q 2378 3584 2631 3529 
Q 2884 3475 3122 3366 
z
" transform="scale(0.015625)"/>
      <path id="DejaVuSans-65" d="M 3597 1894 
L 3597 1613 
L 953 1613 
Q 991 1019 1311 708 
Q 1631 397 2203 397 
Q 2534 397 2845 478 
Q 3156 559 3463 722 
L 3463 178 
Q 3153 47 2828 -22 
Q 2503 -91 2169 -91 
Q 1331 -91 842 396 
Q 353 884 353 1716 
Q 353 2575 817 3079 
Q 1281 3584 2069 3584 
Q 2775 3584 3186 3129 
Q 3597 2675 3597 1894 
z
M 3022 2063 
Q 3016 2534 2758 2815 
Q 2500 3097 2075 3097 
Q 1594 3097 1305 2825 
Q 1016 2553 972 2059 
L 3022 2063 
z
" transform="scale(0.015625)"/>
      <path id="DejaVuSans-20" transform="scale(0.015625)"/>
      <path id="DejaVuSans-41" d="M 2188 4044 
L 1331 1722 
L 3047 1722 
L 2188 4044 
z
M 1831 4666 
L 2547 4666 
L 4325 0 
L 3669 0 
L 3244 1197 
L 1141 1197 
L 716 0 
L 50 0 
L 1831 4666 
z
" transform="scale(0.015625)"/>
      <path id="DejaVuSans-6f" d="M 1959 3097 
Q 1497 3097 1228 2736 
Q 959 2375 959 1747 
Q 959 1119 1226 758 
Q 1494 397 1959 397 
Q 2419 397 2687 759 
Q 2956 1122 2956 1747 
Q 2956 2369 2687 2733 
Q 2419 3097 1959 3097 
z
M 1959 3584 
Q 2709 3584 3137 3096 
Q 3566 2609 3566 1747 
Q 3566 888 3137 398 
Q 2709 -91 1959 -91 
Q 1206 -91 779 398 
Q 353 888 353 1747 
Q 353 2609 779 3096 
Q 1206 3584 1959 3584 
z
" transform="scale(0.015625)"/>
      <path id="DejaVuSans-73" d="M 2834 3397 
L 2834 2853 
Q 2591 2978 2328 3040 
Q 2066 3103 1784 3103 
Q 1356 3103 1142 2972 
Q 928 2841 928 2578 
Q 928 2378 1081 2264 
Q 1234 2150 1697 2047 
L 1894 2003 
Q 2506 1872 2764 1633 
Q 3022 1394 3022 966 
Q 3022 478 2636 193 
Q 2250 -91 1575 -91 
Q 1294 -91 989 -36 
Q 684 19 347 128 
L 347 722 
Q 666 556 975 473 
Q 1284 391 1588 391 
Q 1994 391 2212 530 
Q 2431 669 2431 922 
Q 2431 1156 2273 1281 
Q 2116 1406 1581 1522 
L 1381 1569 
Q 847 1681 609 1914 
Q 372 2147 372 2553 
Q 372 3047 722 3315 
Q 1072 3584 1716 3584 
Q 2034 3584 2315 3537 
Q 2597 3491 2834 3397 
z
" transform="scale(0.015625)"/>
      <path id="DejaVuSans-42" d="M 1259 2228 
L 1259 519 
L 2272 519 
Q 2781 519 3026 730 
Q 3272 941 3272 1375 
Q 3272 1813 3026 2020 
Q 2781 2228 2272 2228 
L 1259 2228 
z
M 1259 4147 
L 1259 2741 
L 2194 2741 
Q 2656 2741 2882 2914 
Q 3109 3088 3109 3444 
Q 3109 3797 2882 3972 
Q 2656 4147 2194 4147 
L 1259 4147 
z
M 628 4666 
L 2241 4666 
Q 2963 4666 3353 4366 
Q 3744 4066 3744 3513 
Q 3744 3084 3544 2831 
Q 3344 2578 2956 2516 
Q 3422 2416 3680 2098 
Q 3938 1781 3938 1306 
Q 3938 681 3513 340 
Q 3088 0 2303 0 
L 628 0 
L 628 4666 
z
" transform="scale(0.015625)"/>
      <path id="DejaVuSans-64" d="M 2906 2969 
L 2906 4863 
L 3481 4863 
L 3481 0 
L 2906 0 
L 2906 525 
Q 2725 213 2448 61 
Q 2172 -91 1784 -91 
Q 1150 -91 751 415 
Q 353 922 353 1747 
Q 353 2572 751 3078 
Q 1150 3584 1784 3584 
Q 2172 3584 2448 3432 
Q 2725 3281 2906 2969 
z
M 947 1747 
Q 947 1113 1208 752 
Q 1469 391 1925 391 
Q 2381 391 2643 752 
Q 2906 1113 2906 1747 
Q 2906 2381 2643 2742 
Q 2381 3103 1925 3103 
Q 1469 3103 1208 2742 
Q 947 2381 947 1747 
z
" transform="scale(0.015625)"/>
     </defs>
     <use xlink:href="#DejaVuSans-56"/>
     <use xlink:href="#DejaVuSans-61" x="60.658203"/>
     <use xlink:href="#DejaVuSans-72" x="121.9375"/>
     <use xlink:href="#DejaVuSans-69" x="163.050781"/>
     <use xlink:href="#DejaVuSans-61" x="190.833984"/>
     <use xlink:href="#DejaVuSans-6e" x="252.113281"/>
     <use xlink:href="#DejaVuSans-63" x="315.492188"/>
     <use xlink:href="#DejaVuSans-65" x="370.472656"/>
     <use xlink:href="#DejaVuSans-20" x="431.996094"/>
     <use xlink:href="#DejaVuSans-41" x="463.783203"/>
     <use xlink:href="#DejaVuSans-63" x="530.441406"/>
     <use xlink:href="#DejaVuSans-72" x="585.421875"/>
     <use xlink:href="#DejaVuSans-6f" x="624.285156"/>
     <use xlink:href="#DejaVuSans-73" x="685.466797"/>
     <use xlink:href="#DejaVuSans-73" x="737.566406"/>
     <use xlink:href="#DejaVuSans-20" x="789.666016"/>
     <use xlink:href="#DejaVuSans-42" x="821.453125"/>
     <use xlink:href="#DejaVuSans-61" x="890.056641"/>
     <use xlink:href="#DejaVuSans-72" x="951.335938"/>
     <use xlink:href="#DejaVuSans-63" x="990.199219"/>
     <use xlink:href="#DejaVuSans-6f" x="1045.179688"/>
     <use xlink:href="#DejaVuSans-64" x="1106.361328"/>
     <use xlink:href="#DejaVuSans-65" x="1169.837891"/>
     <use xlink:href="#DejaVuSans-73" x="1231.361328"/>
    </g>
   </g>
   <g id="legend_1">
    <g id="patch_7">
     <path d="M 342.577106 73.452 
L 416.771419 73.452 
Q 419.411419 73.452 419.411419 70.812 
L 419.411419 33.38175 
Q 419.411419 30.74175 416.771419 30.74175 
L 342.577106 30.74175 
Q 339.937106 30.74175 339.937106 33.38175 
L 339.937106 70.812 
Q 339.937106 73.452 342.577106 73.452 
z
" style="fill: #fcfcfc; opacity: 0.8; stroke: #cccccc; stroke-width: 0.8; stroke-linejoin: miter"/>
    </g>
    <g id="patch_8">
     <path d="M 345.217106 46.051687 
L 371.617106 46.051687 
L 371.617106 36.811687 
L 345.217106 36.811687 
z
" style="fill: #ff0000; fill-opacity: 0.25; stroke: #ff0000; stroke-width: 0.8; stroke-linejoin: miter"/>
    </g>
    <g id="text_13">
     <!-- EYFP -->
     <g style="fill: #262626" transform="translate(382.177106 46.051687) scale(0.132 -0.132)">
      <defs>
       <path id="DejaVuSans-45" d="M 628 4666 
L 3578 4666 
L 3578 4134 
L 1259 4134 
L 1259 2753 
L 3481 2753 
L 3481 2222 
L 1259 2222 
L 1259 531 
L 3634 531 
L 3634 0 
L 628 0 
L 628 4666 
z
" transform="scale(0.015625)"/>
       <path id="DejaVuSans-59" d="M -13 4666 
L 666 4666 
L 1959 2747 
L 3244 4666 
L 3922 4666 
L 2272 2222 
L 2272 0 
L 1638 0 
L 1638 2222 
L -13 4666 
z
" transform="scale(0.015625)"/>
       <path id="DejaVuSans-46" d="M 628 4666 
L 3309 4666 
L 3309 4134 
L 1259 4134 
L 1259 2759 
L 3109 2759 
L 3109 2228 
L 1259 2228 
L 1259 0 
L 628 0 
L 628 4666 
z
" transform="scale(0.015625)"/>
       <path id="DejaVuSans-50" d="M 1259 4147 
L 1259 2394 
L 2053 2394 
Q 2494 2394 2734 2622 
Q 2975 2850 2975 3272 
Q 2975 3691 2734 3919 
Q 2494 4147 2053 4147 
L 1259 4147 
z
M 628 4666 
L 2053 4666 
Q 2838 4666 3239 4311 
Q 3641 3956 3641 3272 
Q 3641 2581 3239 2228 
Q 2838 1875 2053 1875 
L 1259 1875 
L 1259 0 
L 628 0 
L 628 4666 
z
" transform="scale(0.015625)"/>
      </defs>
      <use xlink:href="#DejaVuSans-45"/>
      <use xlink:href="#DejaVuSans-59" x="63.183594"/>
      <use xlink:href="#DejaVuSans-46" x="124.267578"/>
      <use xlink:href="#DejaVuSans-50" x="181.787109"/>
     </g>
    </g>
    <g id="patch_9">
     <path d="M 345.217106 65.426812 
L 371.617106 65.426812 
L 371.617106 56.186812 
L 345.217106 56.186812 
z
" style="fill-opacity: 0.25; stroke: #000000; stroke-width: 0.8; stroke-linejoin: miter"/>
    </g>
    <g id="text_14">
     <!-- HIV -->
     <g style="fill: #262626" transform="translate(382.177106 65.426812) scale(0.132 -0.132)">
      <defs>
       <path id="DejaVuSans-48" d="M 628 4666 
L 1259 4666 
L 1259 2753 
L 3553 2753 
L 3553 4666 
L 4184 4666 
L 4184 0 
L 3553 0 
L 3553 2222 
L 1259 2222 
L 1259 0 
L 628 0 
L 628 4666 
z
" transform="scale(0.015625)"/>
       <path id="DejaVuSans-49" d="M 628 4666 
L 1259 4666 
L 1259 0 
L 628 0 
L 628 4666 
z
" transform="scale(0.015625)"/>
      </defs>
      <use xlink:href="#DejaVuSans-48"/>
      <use xlink:href="#DejaVuSans-49" x="75.195312"/>
      <use xlink:href="#DejaVuSans-56" x="104.6875"/>
     </g>
    </g>
   </g>
  </g>
  <g id="axes_2">
   <g id="patch_10">
    <path d="M 475.018419 403.21375 
L 838.202713 403.21375 
L 838.202713 24.14175 
L 475.018419 24.14175 
z
" style="fill: #fcfcfc"/>
   </g>
   <g id="matplotlib.axis_3">
    <g id="xtick_40">
     <g id="line2d_11">
      <path d="M 622.858032 403.21375 
L 622.858032 24.14175 
" clip-path="url(#pa12a84baae)" style="fill: none; stroke: #f2f2f2; stroke-width: 0.8; stroke-linecap: round"/>
     </g>
     <g id="text_15">
      <!-- $\mathdefault{10^{-1}}$ -->
      <g style="fill: #262626" transform="translate(607.348032 421.543687) scale(0.132 -0.132)">
       <use xlink:href="#DejaVuSans-31" transform="translate(0 0.684375)"/>
       <use xlink:href="#DejaVuSans-30" transform="translate(63.623047 0.684375)"/>
       <use xlink:href="#DejaVuSans-2212" transform="translate(128.203125 38.965625) scale(0.7)"/>
       <use xlink:href="#DejaVuSans-31" transform="translate(186.855469 38.965625) scale(0.7)"/>
      </g>
     </g>
    </g>
    <g id="xtick_41">
     <g id="line2d_12">
      <path d="M 827.151385 403.21375 
L 827.151385 24.14175 
" clip-path="url(#pa12a84baae)" style="fill: none; stroke: #f2f2f2; stroke-width: 0.8; stroke-linecap: round"/>
     </g>
     <g id="text_16">
      <!-- $\mathdefault{10^{0}}$ -->
      <g style="fill: #262626" transform="translate(815.535385 421.543687) scale(0.132 -0.132)">
       <use xlink:href="#DejaVuSans-31" transform="translate(0 0.765625)"/>
       <use xlink:href="#DejaVuSans-30" transform="translate(63.623047 0.765625)"/>
       <use xlink:href="#DejaVuSans-30" transform="translate(128.203125 39.046875) scale(0.7)"/>
      </g>
     </g>
    </g>
    <g id="xtick_42"/>
    <g id="xtick_43"/>
    <g id="xtick_44"/>
    <g id="xtick_45"/>
    <g id="xtick_46"/>
    <g id="xtick_47"/>
    <g id="xtick_48"/>
    <g id="xtick_49"/>
    <g id="xtick_50"/>
    <g id="xtick_51"/>
    <g id="xtick_52"/>
    <g id="xtick_53"/>
    <g id="xtick_54"/>
    <g id="xtick_55"/>
    <g id="xtick_56"/>
    <g id="xtick_57"/>
   </g>
   <g id="matplotlib.axis_4">
    <g id="ytick_7">
     <g id="line2d_13">
      <path d="M 475.018419 403.21375 
L 838.202713 403.21375 
" clip-path="url(#pa12a84baae)" style="fill: none; stroke: #f2f2f2; stroke-width: 0.8; stroke-linecap: round"/>
     </g>
     <g id="text_17">
      <!-- 0 -->
      <g style="fill: #262626" transform="translate(458.319919 408.228719) scale(0.132 -0.132)">
       <use xlink:href="#DejaVuSans-30"/>
      </g>
     </g>
    </g>
    <g id="ytick_8">
     <g id="line2d_14">
      <path d="M 475.018419 328.001052 
L 838.202713 328.001052 
" clip-path="url(#pa12a84baae)" style="fill: none; stroke: #f2f2f2; stroke-width: 0.8; stroke-linecap: round"/>
     </g>
     <g id="text_18">
      <!-- 20 -->
      <g style="fill: #262626" transform="translate(449.921419 333.01602) scale(0.132 -0.132)">
       <use xlink:href="#DejaVuSans-32"/>
       <use xlink:href="#DejaVuSans-30" x="63.623047"/>
      </g>
     </g>
    </g>
    <g id="ytick_9">
     <g id="line2d_15">
      <path d="M 475.018419 252.788353 
L 838.202713 252.788353 
" clip-path="url(#pa12a84baae)" style="fill: none; stroke: #f2f2f2; stroke-width: 0.8; stroke-linecap: round"/>
     </g>
     <g id="text_19">
      <!-- 40 -->
      <g style="fill: #262626" transform="translate(449.921419 257.803322) scale(0.132 -0.132)">
       <use xlink:href="#DejaVuSans-34"/>
       <use xlink:href="#DejaVuSans-30" x="63.623047"/>
      </g>
     </g>
    </g>
    <g id="ytick_10">
     <g id="line2d_16">
      <path d="M 475.018419 177.575655 
L 838.202713 177.575655 
" clip-path="url(#pa12a84baae)" style="fill: none; stroke: #f2f2f2; stroke-width: 0.8; stroke-linecap: round"/>
     </g>
     <g id="text_20">
      <!-- 60 -->
      <g style="fill: #262626" transform="translate(449.921419 182.590624) scale(0.132 -0.132)">
       <use xlink:href="#DejaVuSans-36"/>
       <use xlink:href="#DejaVuSans-30" x="63.623047"/>
      </g>
     </g>
    </g>
    <g id="ytick_11">
     <g id="line2d_17">
      <path d="M 475.018419 102.362956 
L 838.202713 102.362956 
" clip-path="url(#pa12a84baae)" style="fill: none; stroke: #f2f2f2; stroke-width: 0.8; stroke-linecap: round"/>
     </g>
     <g id="text_21">
      <!-- 80 -->
      <g style="fill: #262626" transform="translate(449.921419 107.377925) scale(0.132 -0.132)">
       <use xlink:href="#DejaVuSans-38"/>
       <use xlink:href="#DejaVuSans-30" x="63.623047"/>
      </g>
     </g>
    </g>
    <g id="ytick_12">
     <g id="line2d_18">
      <path d="M 475.018419 27.150258 
L 838.202713 27.150258 
" clip-path="url(#pa12a84baae)" style="fill: none; stroke: #f2f2f2; stroke-width: 0.8; stroke-linecap: round"/>
     </g>
     <g id="text_22">
      <!-- 100 -->
      <g style="fill: #262626" transform="translate(441.522919 32.165227) scale(0.132 -0.132)">
       <use xlink:href="#DejaVuSans-31"/>
       <use xlink:href="#DejaVuSans-30" x="63.623047"/>
       <use xlink:href="#DejaVuSans-30" x="127.246094"/>
      </g>
     </g>
    </g>
   </g>
   <g id="PolyCollection_3">
    <defs>
     <path id="me81ebfdcd2" d="M 491.526796 -444.039125 
L 491.526796 -444.039125 
L 504.733498 -444.039125 
L 504.733498 -444.039125 
L 517.940199 -444.039125 
L 517.940199 -444.039125 
L 531.146901 -444.039125 
L 531.146901 -444.039125 
L 544.353602 -444.039125 
L 544.353602 -444.039125 
L 557.560304 -444.039125 
L 557.560304 -444.039125 
L 570.767005 -444.039125 
L 570.767005 -444.039125 
L 583.973707 -444.039125 
L 583.973707 -444.039125 
L 597.180409 -444.039125 
L 597.180409 -444.039125 
L 610.38711 -444.039125 
L 610.38711 -444.039125 
L 623.593812 -444.039125 
L 623.593812 -444.039125 
L 636.800513 -444.039125 
L 636.800513 -444.039125 
L 650.007215 -444.039125 
L 650.007215 -444.039125 
L 663.213917 -444.039125 
L 663.213917 -444.039125 
L 676.420618 -444.039125 
L 676.420618 -444.039125 
L 689.62732 -444.039125 
L 689.62732 -444.039125 
L 702.834021 -444.039125 
L 702.834021 -444.039125 
L 716.040723 -444.039125 
L 716.040723 -444.039125 
L 729.247425 -444.039125 
L 729.247425 -444.039125 
L 742.454126 -444.039125 
L 742.454126 -444.039125 
L 755.660828 -444.039125 
L 755.660828 -444.039125 
L 768.867529 -444.039125 
L 768.867529 -444.039125 
L 782.074231 -444.039125 
L 782.074231 -444.039125 
L 795.280933 -444.039125 
L 795.280933 -444.039125 
L 808.487634 -444.039125 
L 808.487634 -444.039125 
L 821.694336 -444.039125 
L 821.694336 -444.039125 
L 821.694336 -477.884839 
L 821.694336 -477.884839 
L 821.694336 -477.884839 
L 808.487634 -477.884839 
L 808.487634 -500.448649 
L 795.280933 -500.448649 
L 795.280933 -605.746427 
L 782.074231 -605.746427 
L 782.074231 -620.788966 
L 768.867529 -620.788966 
L 768.867529 -801.299442 
L 755.660828 -801.299442 
L 755.660828 -748.650554 
L 742.454126 -748.650554 
L 742.454126 -790.017538 
L 729.247425 -790.017538 
L 729.247425 -759.932458 
L 716.040723 -759.932458 
L 716.040723 -805.060077 
L 702.834021 -805.060077 
L 702.834021 -703.522935 
L 689.62732 -703.522935 
L 689.62732 -628.310236 
L 676.420618 -628.310236 
L 676.420618 -583.182617 
L 663.213917 -583.182617 
L 663.213917 -530.533728 
L 650.007215 -530.533728 
L 650.007215 -496.688014 
L 636.800513 -496.688014 
L 636.800513 -474.124204 
L 623.593812 -474.124204 
L 623.593812 -466.602935 
L 610.38711 -466.602935 
L 610.38711 -447.79976 
L 597.180409 -447.79976 
L 597.180409 -447.79976 
L 583.973707 -447.79976 
L 583.973707 -451.560395 
L 570.767005 -451.560395 
L 570.767005 -444.039125 
L 557.560304 -444.039125 
L 557.560304 -444.039125 
L 544.353602 -444.039125 
L 544.353602 -444.039125 
L 531.146901 -444.039125 
L 531.146901 -444.039125 
L 517.940199 -444.039125 
L 517.940199 -444.039125 
L 504.733498 -444.039125 
L 504.733498 -444.039125 
L 491.526796 -444.039125 
z
" style="stroke: #000000; stroke-width: 0.8"/>
    </defs>
    <g clip-path="url(#pa12a84baae)">
     <use xlink:href="#me81ebfdcd2" x="0" y="847.252875" style="fill-opacity: 0.25; stroke: #000000; stroke-width: 0.8"/>
    </g>
   </g>
   <g id="PolyCollection_4">
    <defs>
     <path id="mb80b215a6d" d="M 491.526796 -447.79976 
L 491.526796 -444.039125 
L 504.733498 -444.039125 
L 504.733498 -444.039125 
L 517.940199 -444.039125 
L 517.940199 -444.039125 
L 531.146901 -444.039125 
L 531.146901 -444.039125 
L 544.353602 -444.039125 
L 544.353602 -444.039125 
L 557.560304 -444.039125 
L 557.560304 -444.039125 
L 570.767005 -444.039125 
L 570.767005 -444.039125 
L 583.973707 -444.039125 
L 583.973707 -444.039125 
L 597.180409 -444.039125 
L 597.180409 -444.039125 
L 610.38711 -444.039125 
L 610.38711 -444.039125 
L 623.593812 -444.039125 
L 623.593812 -444.039125 
L 636.800513 -444.039125 
L 636.800513 -444.039125 
L 650.007215 -444.039125 
L 650.007215 -444.039125 
L 663.213917 -444.039125 
L 663.213917 -444.039125 
L 676.420618 -444.039125 
L 676.420618 -444.039125 
L 689.62732 -444.039125 
L 689.62732 -444.039125 
L 702.834021 -444.039125 
L 702.834021 -444.039125 
L 716.040723 -444.039125 
L 716.040723 -444.039125 
L 729.247425 -444.039125 
L 729.247425 -444.039125 
L 742.454126 -444.039125 
L 742.454126 -444.039125 
L 755.660828 -444.039125 
L 755.660828 -444.039125 
L 768.867529 -444.039125 
L 768.867529 -444.039125 
L 782.074231 -444.039125 
L 782.074231 -444.039125 
L 795.280933 -444.039125 
L 795.280933 -444.039125 
L 808.487634 -444.039125 
L 808.487634 -444.039125 
L 821.694336 -444.039125 
L 821.694336 -444.039125 
L 821.694336 -444.039125 
L 821.694336 -444.039125 
L 821.694336 -444.039125 
L 808.487634 -444.039125 
L 808.487634 -444.039125 
L 795.280933 -444.039125 
L 795.280933 -444.039125 
L 782.074231 -444.039125 
L 782.074231 -444.039125 
L 768.867529 -444.039125 
L 768.867529 -444.039125 
L 755.660828 -444.039125 
L 755.660828 -444.039125 
L 742.454126 -444.039125 
L 742.454126 -444.039125 
L 729.247425 -444.039125 
L 729.247425 -447.79976 
L 716.040723 -447.79976 
L 716.040723 -444.039125 
L 702.834021 -444.039125 
L 702.834021 -466.602935 
L 689.62732 -466.602935 
L 689.62732 -534.294363 
L 676.420618 -534.294363 
L 676.420618 -594.464522 
L 663.213917 -594.464522 
L 663.213917 -669.67722 
L 650.007215 -669.67722 
L 650.007215 -718.565474 
L 636.800513 -718.565474 
L 636.800513 -677.19849 
L 623.593812 -677.19849 
L 623.593812 -598.225157 
L 610.38711 -598.225157 
L 610.38711 -560.618808 
L 597.180409 -560.618808 
L 597.180409 -515.491188 
L 583.973707 -515.491188 
L 583.973707 -496.688014 
L 570.767005 -496.688014 
L 570.767005 -470.363569 
L 557.560304 -470.363569 
L 557.560304 -451.560395 
L 544.353602 -451.560395 
L 544.353602 -455.32103 
L 531.146901 -455.32103 
L 531.146901 -447.79976 
L 517.940199 -447.79976 
L 517.940199 -447.79976 
L 504.733498 -447.79976 
L 504.733498 -447.79976 
L 491.526796 -447.79976 
z
" style="stroke: #ff0000; stroke-width: 0.8"/>
    </defs>
    <g clip-path="url(#pa12a84baae)">
     <use xlink:href="#mb80b215a6d" x="0" y="847.252875" style="fill: #ff0000; fill-opacity: 0.25; stroke: #ff0000; stroke-width: 0.8"/>
    </g>
   </g>
   <g id="patch_11">
    <path d="M 475.018419 403.21375 
L 475.018419 24.14175 
" style="fill: none; stroke: #e6e6e6; stroke-linejoin: miter; stroke-linecap: square"/>
   </g>
   <g id="patch_12">
    <path d="M 838.202713 403.21375 
L 838.202713 24.14175 
" style="fill: none; stroke: #e6e6e6; stroke-linejoin: miter; stroke-linecap: square"/>
   </g>
   <g id="patch_13">
    <path d="M 475.018419 403.21375 
L 838.202713 403.21375 
" style="fill: none; stroke: #e6e6e6; stroke-linejoin: miter; stroke-linecap: square"/>
   </g>
   <g id="patch_14">
    <path d="M 475.018419 24.14175 
L 838.202713 24.14175 
" style="fill: none; stroke: #e6e6e6; stroke-linejoin: miter; stroke-linecap: square"/>
   </g>
   <g id="text_23">
    <!-- Coefficient of Variation -->
    <g style="fill: #262626" transform="translate(574.442816 18.14175) scale(0.144 -0.144)">
     <defs>
      <path id="DejaVuSans-43" d="M 4122 4306 
L 4122 3641 
Q 3803 3938 3442 4084 
Q 3081 4231 2675 4231 
Q 1875 4231 1450 3742 
Q 1025 3253 1025 2328 
Q 1025 1406 1450 917 
Q 1875 428 2675 428 
Q 3081 428 3442 575 
Q 3803 722 4122 1019 
L 4122 359 
Q 3791 134 3420 21 
Q 3050 -91 2638 -91 
Q 1578 -91 968 557 
Q 359 1206 359 2328 
Q 359 3453 968 4101 
Q 1578 4750 2638 4750 
Q 3056 4750 3426 4639 
Q 3797 4528 4122 4306 
z
" transform="scale(0.015625)"/>
      <path id="DejaVuSans-66" d="M 2375 4863 
L 2375 4384 
L 1825 4384 
Q 1516 4384 1395 4259 
Q 1275 4134 1275 3809 
L 1275 3500 
L 2222 3500 
L 2222 3053 
L 1275 3053 
L 1275 0 
L 697 0 
L 697 3053 
L 147 3053 
L 147 3500 
L 697 3500 
L 697 3744 
Q 697 4328 969 4595 
Q 1241 4863 1831 4863 
L 2375 4863 
z
" transform="scale(0.015625)"/>
      <path id="DejaVuSans-74" d="M 1172 4494 
L 1172 3500 
L 2356 3500 
L 2356 3053 
L 1172 3053 
L 1172 1153 
Q 1172 725 1289 603 
Q 1406 481 1766 481 
L 2356 481 
L 2356 0 
L 1766 0 
Q 1100 0 847 248 
Q 594 497 594 1153 
L 594 3053 
L 172 3053 
L 172 3500 
L 594 3500 
L 594 4494 
L 1172 4494 
z
" transform="scale(0.015625)"/>
     </defs>
     <use xlink:href="#DejaVuSans-43"/>
     <use xlink:href="#DejaVuSans-6f" x="69.824219"/>
     <use xlink:href="#DejaVuSans-65" x="131.005859"/>
     <use xlink:href="#DejaVuSans-66" x="192.529297"/>
     <use xlink:href="#DejaVuSans-66" x="227.734375"/>
     <use xlink:href="#DejaVuSans-69" x="262.939453"/>
     <use xlink:href="#DejaVuSans-63" x="290.722656"/>
     <use xlink:href="#DejaVuSans-69" x="345.703125"/>
     <use xlink:href="#DejaVuSans-65" x="373.486328"/>
     <use xlink:href="#DejaVuSans-6e" x="435.009766"/>
     <use xlink:href="#DejaVuSans-74" x="498.388672"/>
     <use xlink:href="#DejaVuSans-20" x="537.597656"/>
     <use xlink:href="#DejaVuSans-6f" x="569.384766"/>
     <use xlink:href="#DejaVuSans-66" x="630.566406"/>
     <use xlink:href="#DejaVuSans-20" x="665.771484"/>
     <use xlink:href="#DejaVuSans-56" x="697.558594"/>
     <use xlink:href="#DejaVuSans-61" x="758.216797"/>
     <use xlink:href="#DejaVuSans-72" x="819.496094"/>
     <use xlink:href="#DejaVuSans-69" x="860.609375"/>
     <use xlink:href="#DejaVuSans-61" x="888.392578"/>
     <use xlink:href="#DejaVuSans-74" x="949.671875"/>
     <use xlink:href="#DejaVuSans-69" x="988.880859"/>
     <use xlink:href="#DejaVuSans-6f" x="1016.664062"/>
     <use xlink:href="#DejaVuSans-6e" x="1077.845703"/>
    </g>
   </g>
   <g id="legend_2">
    <g id="patch_15">
     <path d="M 754.7684 73.452 
L 828.962713 73.452 
Q 831.602713 73.452 831.602713 70.812 
L 831.602713 33.38175 
Q 831.602713 30.74175 828.962713 30.74175 
L 754.7684 30.74175 
Q 752.1284 30.74175 752.1284 33.38175 
L 752.1284 70.812 
Q 752.1284 73.452 754.7684 73.452 
z
" style="fill: #fcfcfc; opacity: 0.8; stroke: #cccccc; stroke-width: 0.8; stroke-linejoin: miter"/>
    </g>
    <g id="patch_16">
     <path d="M 757.4084 46.051687 
L 783.8084 46.051687 
L 783.8084 36.811687 
L 757.4084 36.811687 
z
" style="fill: #ff0000; fill-opacity: 0.25; stroke: #ff0000; stroke-width: 0.8; stroke-linejoin: miter"/>
    </g>
    <g id="text_24">
     <!-- EYFP -->
     <g style="fill: #262626" transform="translate(794.3684 46.051687) scale(0.132 -0.132)">
      <use xlink:href="#DejaVuSans-45"/>
      <use xlink:href="#DejaVuSans-59" x="63.183594"/>
      <use xlink:href="#DejaVuSans-46" x="124.267578"/>
      <use xlink:href="#DejaVuSans-50" x="181.787109"/>
     </g>
    </g>
    <g id="patch_17">
     <path d="M 757.4084 65.426812 
L 783.8084 65.426812 
L 783.8084 56.186812 
L 757.4084 56.186812 
z
" style="fill-opacity: 0.25; stroke: #000000; stroke-width: 0.8; stroke-linejoin: miter"/>
    </g>
    <g id="text_25">
     <!-- HIV -->
     <g style="fill: #262626" transform="translate(794.3684 65.426812) scale(0.132 -0.132)">
      <use xlink:href="#DejaVuSans-48"/>
      <use xlink:href="#DejaVuSans-49" x="75.195312"/>
      <use xlink:href="#DejaVuSans-56" x="104.6875"/>
     </g>
    </g>
   </g>
  </g>
  <g id="axes_3">
   <g id="patch_18">
    <path d="M 62.827125 818.97775 
L 426.011419 818.97775 
L 426.011419 439.90575 
L 62.827125 439.90575 
z
" style="fill: #fcfcfc"/>
   </g>
   <g id="matplotlib.axis_5">
    <g id="xtick_58">
     <g id="line2d_19">
      <path d="M 128.062883 818.97775 
L 128.062883 439.90575 
" clip-path="url(#pc843a84930)" style="fill: none; stroke: #f2f2f2; stroke-width: 0.8; stroke-linecap: round"/>
     </g>
     <g id="text_26">
      <!-- $\mathdefault{10^{-6}}$ -->
      <g style="fill: #262626" transform="translate(112.552883 837.307687) scale(0.132 -0.132)">
       <use xlink:href="#DejaVuSans-31" transform="translate(0 0.765625)"/>
       <use xlink:href="#DejaVuSans-30" transform="translate(63.623047 0.765625)"/>
       <use xlink:href="#DejaVuSans-2212" transform="translate(128.203125 39.046875) scale(0.7)"/>
       <use xlink:href="#DejaVuSans-36" transform="translate(186.855469 39.046875) scale(0.7)"/>
      </g>
     </g>
    </g>
    <g id="xtick_59">
     <g id="line2d_20">
      <path d="M 258.524402 818.97775 
L 258.524402 439.90575 
" clip-path="url(#pc843a84930)" style="fill: none; stroke: #f2f2f2; stroke-width: 0.8; stroke-linecap: round"/>
     </g>
     <g id="text_27">
      <!-- $\mathdefault{10^{-5}}$ -->
      <g style="fill: #262626" transform="translate(243.014402 837.307687) scale(0.132 -0.132)">
       <use xlink:href="#DejaVuSans-31" transform="translate(0 0.684375)"/>
       <use xlink:href="#DejaVuSans-30" transform="translate(63.623047 0.684375)"/>
       <use xlink:href="#DejaVuSans-2212" transform="translate(128.203125 38.965625) scale(0.7)"/>
       <use xlink:href="#DejaVuSans-35" transform="translate(186.855469 38.965625) scale(0.7)"/>
      </g>
     </g>
    </g>
    <g id="xtick_60">
     <g id="line2d_21">
      <path d="M 388.985921 818.97775 
L 388.985921 439.90575 
" clip-path="url(#pc843a84930)" style="fill: none; stroke: #f2f2f2; stroke-width: 0.8; stroke-linecap: round"/>
     </g>
     <g id="text_28">
      <!-- $\mathdefault{10^{-4}}$ -->
      <g style="fill: #262626" transform="translate(373.475921 837.307687) scale(0.132 -0.132)">
       <use xlink:href="#DejaVuSans-31" transform="translate(0 0.684375)"/>
       <use xlink:href="#DejaVuSans-30" transform="translate(63.623047 0.684375)"/>
       <use xlink:href="#DejaVuSans-2212" transform="translate(128.203125 38.965625) scale(0.7)"/>
       <use xlink:href="#DejaVuSans-34" transform="translate(186.855469 38.965625) scale(0.7)"/>
      </g>
     </g>
    </g>
    <g id="xtick_61"/>
    <g id="xtick_62"/>
    <g id="xtick_63"/>
    <g id="xtick_64"/>
    <g id="xtick_65"/>
    <g id="xtick_66"/>
    <g id="xtick_67"/>
    <g id="xtick_68"/>
    <g id="xtick_69"/>
    <g id="xtick_70"/>
    <g id="xtick_71"/>
    <g id="xtick_72"/>
    <g id="xtick_73"/>
    <g id="xtick_74"/>
    <g id="xtick_75"/>
    <g id="xtick_76"/>
    <g id="xtick_77"/>
    <g id="xtick_78"/>
    <g id="xtick_79"/>
    <g id="xtick_80"/>
    <g id="xtick_81"/>
    <g id="xtick_82"/>
   </g>
   <g id="matplotlib.axis_6">
    <g id="ytick_13">
     <g id="line2d_22">
      <path d="M 62.827125 818.97775 
L 426.011419 818.97775 
" clip-path="url(#pc843a84930)" style="fill: none; stroke: #f2f2f2; stroke-width: 0.8; stroke-linecap: round"/>
     </g>
     <g id="text_29">
      <!-- 0.0 -->
      <g style="fill: #262626" transform="translate(33.535 823.992719) scale(0.132 -0.132)">
       <defs>
        <path id="DejaVuSans-2e" d="M 684 794 
L 1344 794 
L 1344 0 
L 684 0 
L 684 794 
z
" transform="scale(0.015625)"/>
       </defs>
       <use xlink:href="#DejaVuSans-30"/>
       <use xlink:href="#DejaVuSans-2e" x="63.623047"/>
       <use xlink:href="#DejaVuSans-30" x="95.410156"/>
      </g>
     </g>
    </g>
    <g id="ytick_14">
     <g id="line2d_23">
      <path d="M 62.827125 773.850131 
L 426.011419 773.850131 
" clip-path="url(#pc843a84930)" style="fill: none; stroke: #f2f2f2; stroke-width: 0.8; stroke-linecap: round"/>
     </g>
     <g id="text_30">
      <!-- 2.5 -->
      <g style="fill: #262626" transform="translate(33.535 778.8651) scale(0.132 -0.132)">
       <use xlink:href="#DejaVuSans-32"/>
       <use xlink:href="#DejaVuSans-2e" x="63.623047"/>
       <use xlink:href="#DejaVuSans-35" x="95.410156"/>
      </g>
     </g>
    </g>
    <g id="ytick_15">
     <g id="line2d_24">
      <path d="M 62.827125 728.722512 
L 426.011419 728.722512 
" clip-path="url(#pc843a84930)" style="fill: none; stroke: #f2f2f2; stroke-width: 0.8; stroke-linecap: round"/>
     </g>
     <g id="text_31">
      <!-- 5.0 -->
      <g style="fill: #262626" transform="translate(33.535 733.737481) scale(0.132 -0.132)">
       <use xlink:href="#DejaVuSans-35"/>
       <use xlink:href="#DejaVuSans-2e" x="63.623047"/>
       <use xlink:href="#DejaVuSans-30" x="95.410156"/>
      </g>
     </g>
    </g>
    <g id="ytick_16">
     <g id="line2d_25">
      <path d="M 62.827125 683.594893 
L 426.011419 683.594893 
" clip-path="url(#pc843a84930)" style="fill: none; stroke: #f2f2f2; stroke-width: 0.8; stroke-linecap: round"/>
     </g>
     <g id="text_32">
      <!-- 7.5 -->
      <g style="fill: #262626" transform="translate(33.535 688.609862) scale(0.132 -0.132)">
       <use xlink:href="#DejaVuSans-37"/>
       <use xlink:href="#DejaVuSans-2e" x="63.623047"/>
       <use xlink:href="#DejaVuSans-35" x="95.410156"/>
      </g>
     </g>
    </g>
    <g id="ytick_17">
     <g id="line2d_26">
      <path d="M 62.827125 638.467274 
L 426.011419 638.467274 
" clip-path="url(#pc843a84930)" style="fill: none; stroke: #f2f2f2; stroke-width: 0.8; stroke-linecap: round"/>
     </g>
     <g id="text_33">
      <!-- 10.0 -->
      <g style="fill: #262626" transform="translate(25.1365 643.482243) scale(0.132 -0.132)">
       <use xlink:href="#DejaVuSans-31"/>
       <use xlink:href="#DejaVuSans-30" x="63.623047"/>
       <use xlink:href="#DejaVuSans-2e" x="127.246094"/>
       <use xlink:href="#DejaVuSans-30" x="159.033203"/>
      </g>
     </g>
    </g>
    <g id="ytick_18">
     <g id="line2d_27">
      <path d="M 62.827125 593.339655 
L 426.011419 593.339655 
" clip-path="url(#pc843a84930)" style="fill: none; stroke: #f2f2f2; stroke-width: 0.8; stroke-linecap: round"/>
     </g>
     <g id="text_34">
      <!-- 12.5 -->
      <g style="fill: #262626" transform="translate(25.1365 598.354624) scale(0.132 -0.132)">
       <use xlink:href="#DejaVuSans-31"/>
       <use xlink:href="#DejaVuSans-32" x="63.623047"/>
       <use xlink:href="#DejaVuSans-2e" x="127.246094"/>
       <use xlink:href="#DejaVuSans-35" x="159.033203"/>
      </g>
     </g>
    </g>
    <g id="ytick_19">
     <g id="line2d_28">
      <path d="M 62.827125 548.212036 
L 426.011419 548.212036 
" clip-path="url(#pc843a84930)" style="fill: none; stroke: #f2f2f2; stroke-width: 0.8; stroke-linecap: round"/>
     </g>
     <g id="text_35">
      <!-- 15.0 -->
      <g style="fill: #262626" transform="translate(25.1365 553.227004) scale(0.132 -0.132)">
       <use xlink:href="#DejaVuSans-31"/>
       <use xlink:href="#DejaVuSans-35" x="63.623047"/>
       <use xlink:href="#DejaVuSans-2e" x="127.246094"/>
       <use xlink:href="#DejaVuSans-30" x="159.033203"/>
      </g>
     </g>
    </g>
    <g id="ytick_20">
     <g id="line2d_29">
      <path d="M 62.827125 503.084417 
L 426.011419 503.084417 
" clip-path="url(#pc843a84930)" style="fill: none; stroke: #f2f2f2; stroke-width: 0.8; stroke-linecap: round"/>
     </g>
     <g id="text_36">
      <!-- 17.5 -->
      <g style="fill: #262626" transform="translate(25.1365 508.099385) scale(0.132 -0.132)">
       <use xlink:href="#DejaVuSans-31"/>
       <use xlink:href="#DejaVuSans-37" x="63.623047"/>
       <use xlink:href="#DejaVuSans-2e" x="127.246094"/>
       <use xlink:href="#DejaVuSans-35" x="159.033203"/>
      </g>
     </g>
    </g>
    <g id="ytick_21">
     <g id="line2d_30">
      <path d="M 62.827125 457.956798 
L 426.011419 457.956798 
" clip-path="url(#pc843a84930)" style="fill: none; stroke: #f2f2f2; stroke-width: 0.8; stroke-linecap: round"/>
     </g>
     <g id="text_37">
      <!-- 20.0 -->
      <g style="fill: #262626" transform="translate(25.1365 462.971766) scale(0.132 -0.132)">
       <use xlink:href="#DejaVuSans-32"/>
       <use xlink:href="#DejaVuSans-30" x="63.623047"/>
       <use xlink:href="#DejaVuSans-2e" x="127.246094"/>
       <use xlink:href="#DejaVuSans-30" x="159.033203"/>
      </g>
     </g>
    </g>
    <g id="text_38">
     <!-- Lopinavir -->
     <g style="fill: #262626" transform="translate(18.14175 662.501) rotate(-90) scale(0.144 -0.144)">
      <defs>
       <path id="DejaVuSans-4c" d="M 628 4666 
L 1259 4666 
L 1259 531 
L 3531 531 
L 3531 0 
L 628 0 
L 628 4666 
z
" transform="scale(0.015625)"/>
       <path id="DejaVuSans-70" d="M 1159 525 
L 1159 -1331 
L 581 -1331 
L 581 3500 
L 1159 3500 
L 1159 2969 
Q 1341 3281 1617 3432 
Q 1894 3584 2278 3584 
Q 2916 3584 3314 3078 
Q 3713 2572 3713 1747 
Q 3713 922 3314 415 
Q 2916 -91 2278 -91 
Q 1894 -91 1617 61 
Q 1341 213 1159 525 
z
M 3116 1747 
Q 3116 2381 2855 2742 
Q 2594 3103 2138 3103 
Q 1681 3103 1420 2742 
Q 1159 2381 1159 1747 
Q 1159 1113 1420 752 
Q 1681 391 2138 391 
Q 2594 391 2855 752 
Q 3116 1113 3116 1747 
z
" transform="scale(0.015625)"/>
       <path id="DejaVuSans-76" d="M 191 3500 
L 800 3500 
L 1894 563 
L 2988 3500 
L 3597 3500 
L 2284 0 
L 1503 0 
L 191 3500 
z
" transform="scale(0.015625)"/>
      </defs>
      <use xlink:href="#DejaVuSans-4c"/>
      <use xlink:href="#DejaVuSans-6f" x="53.962891"/>
      <use xlink:href="#DejaVuSans-70" x="115.144531"/>
      <use xlink:href="#DejaVuSans-69" x="178.621094"/>
      <use xlink:href="#DejaVuSans-6e" x="206.404297"/>
      <use xlink:href="#DejaVuSans-61" x="269.783203"/>
      <use xlink:href="#DejaVuSans-76" x="331.0625"/>
      <use xlink:href="#DejaVuSans-69" x="390.242188"/>
      <use xlink:href="#DejaVuSans-72" x="418.025391"/>
     </g>
    </g>
   </g>
   <g id="PolyCollection_5">
    <defs>
     <path id="m334a6e66fe" d="M 79.335502 -46.326173 
L 79.335502 -28.275125 
L 106.849464 -28.275125 
L 106.849464 -28.275125 
L 134.363425 -28.275125 
L 134.363425 -28.275125 
L 161.877387 -28.275125 
L 161.877387 -28.275125 
L 189.391349 -28.275125 
L 189.391349 -28.275125 
L 216.90531 -28.275125 
L 216.90531 -28.275125 
L 244.419272 -28.275125 
L 244.419272 -28.275125 
L 271.933234 -28.275125 
L 271.933234 -28.275125 
L 299.447195 -28.275125 
L 299.447195 -28.275125 
L 326.961157 -28.275125 
L 326.961157 -28.275125 
L 354.475119 -28.275125 
L 354.475119 -28.275125 
L 381.98908 -28.275125 
L 381.98908 -28.275125 
L 409.503042 -28.275125 
L 409.503042 -28.275125 
L 409.503042 -82.428268 
L 409.503042 -82.428268 
L 409.503042 -82.428268 
L 381.98908 -82.428268 
L 381.98908 -190.734554 
L 354.475119 -190.734554 
L 354.475119 -190.734554 
L 326.961157 -190.734554 
L 326.961157 -371.24503 
L 299.447195 -371.24503 
L 299.447195 -389.296077 
L 271.933234 -389.296077 
L 271.933234 -389.296077 
L 244.419272 -389.296077 
L 244.419272 -118.530363 
L 216.90531 -118.530363 
L 216.90531 -154.632458 
L 189.391349 -154.632458 
L 189.391349 -82.428268 
L 161.877387 -82.428268 
L 161.877387 -64.37722 
L 134.363425 -64.37722 
L 134.363425 -64.37722 
L 106.849464 -64.37722 
L 106.849464 -46.326173 
L 79.335502 -46.326173 
z
" style="stroke: #000000; stroke-width: 0.8"/>
    </defs>
    <g clip-path="url(#pc843a84930)">
     <use xlink:href="#m334a6e66fe" x="0" y="847.252875" style="fill-opacity: 0.25; stroke: #000000; stroke-width: 0.8"/>
    </g>
   </g>
   <g id="PolyCollection_6">
    <defs>
     <path id="md74222a995" d="M 79.335502 -46.326173 
L 79.335502 -28.275125 
L 106.849464 -28.275125 
L 106.849464 -28.275125 
L 134.363425 -28.275125 
L 134.363425 -28.275125 
L 161.877387 -28.275125 
L 161.877387 -28.275125 
L 189.391349 -28.275125 
L 189.391349 -28.275125 
L 216.90531 -28.275125 
L 216.90531 -28.275125 
L 244.419272 -28.275125 
L 244.419272 -28.275125 
L 271.933234 -28.275125 
L 271.933234 -28.275125 
L 299.447195 -28.275125 
L 299.447195 -28.275125 
L 326.961157 -28.275125 
L 326.961157 -28.275125 
L 354.475119 -28.275125 
L 354.475119 -28.275125 
L 381.98908 -28.275125 
L 381.98908 -28.275125 
L 409.503042 -28.275125 
L 409.503042 -28.275125 
L 409.503042 -46.326173 
L 409.503042 -46.326173 
L 409.503042 -46.326173 
L 381.98908 -46.326173 
L 381.98908 -82.428268 
L 354.475119 -82.428268 
L 354.475119 -244.887696 
L 326.961157 -244.887696 
L 326.961157 -226.836649 
L 299.447195 -226.836649 
L 299.447195 -190.734554 
L 271.933234 -190.734554 
L 271.933234 -154.632458 
L 244.419272 -154.632458 
L 244.419272 -82.428268 
L 216.90531 -82.428268 
L 216.90531 -64.37722 
L 189.391349 -64.37722 
L 189.391349 -46.326173 
L 161.877387 -46.326173 
L 161.877387 -28.275125 
L 134.363425 -28.275125 
L 134.363425 -28.275125 
L 106.849464 -28.275125 
L 106.849464 -46.326173 
L 79.335502 -46.326173 
z
" style="stroke: #ff0000; stroke-width: 0.8"/>
    </defs>
    <g clip-path="url(#pc843a84930)">
     <use xlink:href="#md74222a995" x="0" y="847.252875" style="fill: #ff0000; fill-opacity: 0.25; stroke: #ff0000; stroke-width: 0.8"/>
    </g>
   </g>
   <g id="patch_19">
    <path d="M 62.827125 818.97775 
L 62.827125 439.90575 
" style="fill: none; stroke: #e6e6e6; stroke-linejoin: miter; stroke-linecap: square"/>
   </g>
   <g id="patch_20">
    <path d="M 426.011419 818.97775 
L 426.011419 439.90575 
" style="fill: none; stroke: #e6e6e6; stroke-linejoin: miter; stroke-linecap: square"/>
   </g>
   <g id="patch_21">
    <path d="M 62.827125 818.97775 
L 426.011419 818.97775 
" style="fill: none; stroke: #e6e6e6; stroke-linejoin: miter; stroke-linecap: square"/>
   </g>
   <g id="patch_22">
    <path d="M 62.827125 439.90575 
L 426.011419 439.90575 
" style="fill: none; stroke: #e6e6e6; stroke-linejoin: miter; stroke-linecap: square"/>
   </g>
   <g id="legend_3">
    <g id="patch_23">
     <path d="M 342.577106 489.216 
L 416.771419 489.216 
Q 419.411419 489.216 419.411419 486.576 
L 419.411419 449.14575 
Q 419.411419 446.50575 416.771419 446.50575 
L 342.577106 446.50575 
Q 339.937106 446.50575 339.937106 449.14575 
L 339.937106 486.576 
Q 339.937106 489.216 342.577106 489.216 
z
" style="fill: #fcfcfc; opacity: 0.8; stroke: #cccccc; stroke-width: 0.8; stroke-linejoin: miter"/>
    </g>
    <g id="patch_24">
     <path d="M 345.217106 461.815687 
L 371.617106 461.815687 
L 371.617106 452.575687 
L 345.217106 452.575687 
z
" style="fill: #ff0000; fill-opacity: 0.25; stroke: #ff0000; stroke-width: 0.8; stroke-linejoin: miter"/>
    </g>
    <g id="text_39">
     <!-- EYFP -->
     <g style="fill: #262626" transform="translate(382.177106 461.815687) scale(0.132 -0.132)">
      <use xlink:href="#DejaVuSans-45"/>
      <use xlink:href="#DejaVuSans-59" x="63.183594"/>
      <use xlink:href="#DejaVuSans-46" x="124.267578"/>
      <use xlink:href="#DejaVuSans-50" x="181.787109"/>
     </g>
    </g>
    <g id="patch_25">
     <path d="M 345.217106 481.190812 
L 371.617106 481.190812 
L 371.617106 471.950812 
L 345.217106 471.950812 
z
" style="fill-opacity: 0.25; stroke: #000000; stroke-width: 0.8; stroke-linejoin: miter"/>
    </g>
    <g id="text_40">
     <!-- HIV -->
     <g style="fill: #262626" transform="translate(382.177106 481.190812) scale(0.132 -0.132)">
      <use xlink:href="#DejaVuSans-48"/>
      <use xlink:href="#DejaVuSans-49" x="75.195312"/>
      <use xlink:href="#DejaVuSans-56" x="104.6875"/>
     </g>
    </g>
   </g>
  </g>
  <g id="axes_4">
   <g id="patch_26">
    <path d="M 475.018419 818.97775 
L 838.202713 818.97775 
L 838.202713 439.90575 
L 475.018419 439.90575 
z
" style="fill: #fcfcfc"/>
   </g>
   <g id="matplotlib.axis_7">
    <g id="xtick_83">
     <g id="line2d_31">
      <path d="M 688.38044 818.97775 
L 688.38044 439.90575 
" clip-path="url(#p61dc48023c)" style="fill: none; stroke: #f2f2f2; stroke-width: 0.8; stroke-linecap: round"/>
     </g>
     <g id="text_41">
      <!-- $\mathdefault{10^{-1}}$ -->
      <g style="fill: #262626" transform="translate(672.87044 837.307687) scale(0.132 -0.132)">
       <use xlink:href="#DejaVuSans-31" transform="translate(0 0.684375)"/>
       <use xlink:href="#DejaVuSans-30" transform="translate(63.623047 0.684375)"/>
       <use xlink:href="#DejaVuSans-2212" transform="translate(128.203125 38.965625) scale(0.7)"/>
       <use xlink:href="#DejaVuSans-31" transform="translate(186.855469 38.965625) scale(0.7)"/>
      </g>
     </g>
    </g>
    <g id="xtick_84"/>
    <g id="xtick_85"/>
    <g id="xtick_86"/>
    <g id="xtick_87"/>
    <g id="xtick_88"/>
    <g id="xtick_89"/>
    <g id="xtick_90"/>
    <g id="xtick_91"/>
    <g id="xtick_92"/>
    <g id="xtick_93"/>
   </g>
   <g id="matplotlib.axis_8">
    <g id="ytick_22">
     <g id="line2d_32">
      <path d="M 475.018419 818.97775 
L 838.202713 818.97775 
" clip-path="url(#p61dc48023c)" style="fill: none; stroke: #f2f2f2; stroke-width: 0.8; stroke-linecap: round"/>
     </g>
     <g id="text_42">
      <!-- 0 -->
      <g style="fill: #262626" transform="translate(458.319919 823.992719) scale(0.132 -0.132)">
       <use xlink:href="#DejaVuSans-30"/>
      </g>
     </g>
    </g>
    <g id="ytick_23">
     <g id="line2d_33">
      <path d="M 475.018419 752.122018 
L 838.202713 752.122018 
" clip-path="url(#p61dc48023c)" style="fill: none; stroke: #f2f2f2; stroke-width: 0.8; stroke-linecap: round"/>
     </g>
     <g id="text_43">
      <!-- 5 -->
      <g style="fill: #262626" transform="translate(458.319919 757.136987) scale(0.132 -0.132)">
       <use xlink:href="#DejaVuSans-35"/>
      </g>
     </g>
    </g>
    <g id="ytick_24">
     <g id="line2d_34">
      <path d="M 475.018419 685.266286 
L 838.202713 685.266286 
" clip-path="url(#p61dc48023c)" style="fill: none; stroke: #f2f2f2; stroke-width: 0.8; stroke-linecap: round"/>
     </g>
     <g id="text_44">
      <!-- 10 -->
      <g style="fill: #262626" transform="translate(449.921419 690.281255) scale(0.132 -0.132)">
       <use xlink:href="#DejaVuSans-31"/>
       <use xlink:href="#DejaVuSans-30" x="63.623047"/>
      </g>
     </g>
    </g>
    <g id="ytick_25">
     <g id="line2d_35">
      <path d="M 475.018419 618.410554 
L 838.202713 618.410554 
" clip-path="url(#p61dc48023c)" style="fill: none; stroke: #f2f2f2; stroke-width: 0.8; stroke-linecap: round"/>
     </g>
     <g id="text_45">
      <!-- 15 -->
      <g style="fill: #262626" transform="translate(449.921419 623.425523) scale(0.132 -0.132)">
       <use xlink:href="#DejaVuSans-31"/>
       <use xlink:href="#DejaVuSans-35" x="63.623047"/>
      </g>
     </g>
    </g>
    <g id="ytick_26">
     <g id="line2d_36">
      <path d="M 475.018419 551.554822 
L 838.202713 551.554822 
" clip-path="url(#p61dc48023c)" style="fill: none; stroke: #f2f2f2; stroke-width: 0.8; stroke-linecap: round"/>
     </g>
     <g id="text_46">
      <!-- 20 -->
      <g style="fill: #262626" transform="translate(449.921419 556.569791) scale(0.132 -0.132)">
       <use xlink:href="#DejaVuSans-32"/>
       <use xlink:href="#DejaVuSans-30" x="63.623047"/>
      </g>
     </g>
    </g>
    <g id="ytick_27">
     <g id="line2d_37">
      <path d="M 475.018419 484.69909 
L 838.202713 484.69909 
" clip-path="url(#p61dc48023c)" style="fill: none; stroke: #f2f2f2; stroke-width: 0.8; stroke-linecap: round"/>
     </g>
     <g id="text_47">
      <!-- 25 -->
      <g style="fill: #262626" transform="translate(449.921419 489.714059) scale(0.132 -0.132)">
       <use xlink:href="#DejaVuSans-32"/>
       <use xlink:href="#DejaVuSans-35" x="63.623047"/>
      </g>
     </g>
    </g>
   </g>
   <g id="PolyCollection_7">
    <defs>
     <path id="m68dd80a970" d="M 491.526796 -28.275125 
L 491.526796 -28.275125 
L 519.040758 -28.275125 
L 519.040758 -28.275125 
L 546.554719 -28.275125 
L 546.554719 -28.275125 
L 574.068681 -28.275125 
L 574.068681 -28.275125 
L 601.582643 -28.275125 
L 601.582643 -28.275125 
L 629.096604 -28.275125 
L 629.096604 -28.275125 
L 656.610566 -28.275125 
L 656.610566 -28.275125 
L 684.124528 -28.275125 
L 684.124528 -28.275125 
L 711.638489 -28.275125 
L 711.638489 -28.275125 
L 739.152451 -28.275125 
L 739.152451 -28.275125 
L 766.666413 -28.275125 
L 766.666413 -28.275125 
L 794.180374 -28.275125 
L 794.180374 -28.275125 
L 821.694336 -28.275125 
L 821.694336 -28.275125 
L 821.694336 -121.87315 
L 821.694336 -121.87315 
L 821.694336 -121.87315 
L 794.180374 -121.87315 
L 794.180374 -161.986589 
L 766.666413 -161.986589 
L 766.666413 -389.296077 
L 739.152451 -389.296077 
L 739.152451 -335.811492 
L 711.638489 -335.811492 
L 711.638489 -228.842321 
L 684.124528 -228.842321 
L 684.124528 -108.502003 
L 656.610566 -108.502003 
L 656.610566 -135.244296 
L 629.096604 -135.244296 
L 629.096604 -55.017418 
L 601.582643 -55.017418 
L 601.582643 -41.646271 
L 574.068681 -41.646271 
L 574.068681 -28.275125 
L 546.554719 -28.275125 
L 546.554719 -41.646271 
L 519.040758 -41.646271 
L 519.040758 -28.275125 
L 491.526796 -28.275125 
z
" style="stroke: #000000; stroke-width: 0.8"/>
    </defs>
    <g clip-path="url(#p61dc48023c)">
     <use xlink:href="#m68dd80a970" x="0" y="847.252875" style="fill-opacity: 0.25; stroke: #000000; stroke-width: 0.8"/>
    </g>
   </g>
   <g id="PolyCollection_8">
    <defs>
     <path id="m8070a43a2d" d="M 491.526796 -41.646271 
L 491.526796 -28.275125 
L 519.040758 -28.275125 
L 519.040758 -28.275125 
L 546.554719 -28.275125 
L 546.554719 -28.275125 
L 574.068681 -28.275125 
L 574.068681 -28.275125 
L 601.582643 -28.275125 
L 601.582643 -28.275125 
L 629.096604 -28.275125 
L 629.096604 -28.275125 
L 656.610566 -28.275125 
L 656.610566 -28.275125 
L 684.124528 -28.275125 
L 684.124528 -28.275125 
L 711.638489 -28.275125 
L 711.638489 -28.275125 
L 739.152451 -28.275125 
L 739.152451 -28.275125 
L 766.666413 -28.275125 
L 766.666413 -28.275125 
L 794.180374 -28.275125 
L 794.180374 -28.275125 
L 821.694336 -28.275125 
L 821.694336 -28.275125 
L 821.694336 -41.646271 
L 821.694336 -41.646271 
L 821.694336 -41.646271 
L 794.180374 -41.646271 
L 794.180374 -41.646271 
L 766.666413 -41.646271 
L 766.666413 -148.615442 
L 739.152451 -148.615442 
L 739.152451 -215.471174 
L 711.638489 -215.471174 
L 711.638489 -175.357735 
L 684.124528 -175.357735 
L 684.124528 -95.130857 
L 656.610566 -95.130857 
L 656.610566 -108.502003 
L 629.096604 -108.502003 
L 629.096604 -41.646271 
L 601.582643 -41.646271 
L 601.582643 -41.646271 
L 574.068681 -41.646271 
L 574.068681 -28.275125 
L 546.554719 -28.275125 
L 546.554719 -28.275125 
L 519.040758 -28.275125 
L 519.040758 -41.646271 
L 491.526796 -41.646271 
z
" style="stroke: #ff0000; stroke-width: 0.8"/>
    </defs>
    <g clip-path="url(#p61dc48023c)">
     <use xlink:href="#m8070a43a2d" x="0" y="847.252875" style="fill: #ff0000; fill-opacity: 0.25; stroke: #ff0000; stroke-width: 0.8"/>
    </g>
   </g>
   <g id="patch_27">
    <path d="M 475.018419 818.97775 
L 475.018419 439.90575 
" style="fill: none; stroke: #e6e6e6; stroke-linejoin: miter; stroke-linecap: square"/>
   </g>
   <g id="patch_28">
    <path d="M 838.202713 818.97775 
L 838.202713 439.90575 
" style="fill: none; stroke: #e6e6e6; stroke-linejoin: miter; stroke-linecap: square"/>
   </g>
   <g id="patch_29">
    <path d="M 475.018419 818.97775 
L 838.202713 818.97775 
" style="fill: none; stroke: #e6e6e6; stroke-linejoin: miter; stroke-linecap: square"/>
   </g>
   <g id="patch_30">
    <path d="M 475.018419 439.90575 
L 838.202713 439.90575 
" style="fill: none; stroke: #e6e6e6; stroke-linejoin: miter; stroke-linecap: square"/>
   </g>
   <g id="legend_4">
    <g id="patch_31">
     <path d="M 754.7684 489.216 
L 828.962713 489.216 
Q 831.602713 489.216 831.602713 486.576 
L 831.602713 449.14575 
Q 831.602713 446.50575 828.962713 446.50575 
L 754.7684 446.50575 
Q 752.1284 446.50575 752.1284 449.14575 
L 752.1284 486.576 
Q 752.1284 489.216 754.7684 489.216 
z
" style="fill: #fcfcfc; opacity: 0.8; stroke: #cccccc; stroke-width: 0.8; stroke-linejoin: miter"/>
    </g>
    <g id="patch_32">
     <path d="M 757.4084 461.815687 
L 783.8084 461.815687 
L 783.8084 452.575687 
L 757.4084 452.575687 
z
" style="fill: #ff0000; fill-opacity: 0.25; stroke: #ff0000; stroke-width: 0.8; stroke-linejoin: miter"/>
    </g>
    <g id="text_48">
     <!-- EYFP -->
     <g style="fill: #262626" transform="translate(794.3684 461.815687) scale(0.132 -0.132)">
      <use xlink:href="#DejaVuSans-45"/>
      <use xlink:href="#DejaVuSans-59" x="63.183594"/>
      <use xlink:href="#DejaVuSans-46" x="124.267578"/>
      <use xlink:href="#DejaVuSans-50" x="181.787109"/>
     </g>
    </g>
    <g id="patch_33">
     <path d="M 757.4084 481.190812 
L 783.8084 481.190812 
L 783.8084 471.950812 
L 757.4084 471.950812 
z
" style="fill-opacity: 0.25; stroke: #000000; stroke-width: 0.8; stroke-linejoin: miter"/>
    </g>
    <g id="text_49">
     <!-- HIV -->
     <g style="fill: #262626" transform="translate(794.3684 481.190812) scale(0.132 -0.132)">
      <use xlink:href="#DejaVuSans-48"/>
      <use xlink:href="#DejaVuSans-49" x="75.195312"/>
      <use xlink:href="#DejaVuSans-56" x="104.6875"/>
     </g>
    </g>
   </g>
  </g>
 </g>
 <defs>
  <clipPath id="pfecf129862">
   <rect x="62.827125" y="24.14175" width="363.184294" height="379.072"/>
  </clipPath>
  <clipPath id="pa12a84baae">
   <rect x="475.018419" y="24.14175" width="363.184294" height="379.072"/>
  </clipPath>
  <clipPath id="pc843a84930">
   <rect x="62.827125" y="439.90575" width="363.184294" height="379.072"/>
  </clipPath>
  <clipPath id="p61dc48023c">
   <rect x="475.018419" y="439.90575" width="363.184294" height="379.072"/>
  </clipPath>
 </defs>
</svg>
