<?xml version="1.0" encoding="utf-8" standalone="no"?>
<!DOCTYPE svg PUBLIC "-//W3C//DTD SVG 1.1//EN"
  "http://www.w3.org/Graphics/SVG/1.1/DTD/svg11.dtd">
<svg xmlns:xlink="http://www.w3.org/1999/xlink" width="512.232pt" height="292.113375pt" viewBox="0 0 512.232 292.113375" xmlns="http://www.w3.org/2000/svg" version="1.1">
 <metadata>
  <rdf:RDF xmlns:dc="http://purl.org/dc/elements/1.1/" xmlns:cc="http://creativecommons.org/ns#" xmlns:rdf="http://www.w3.org/1999/02/22-rdf-syntax-ns#">
   <cc:Work>
    <dc:type rdf:resource="http://purl.org/dc/dcmitype/StillImage"/>
    <dc:date>2024-09-29T19:35:12.122766</dc:date>
    <dc:format>image/svg+xml</dc:format>
    <dc:creator>
     <cc:Agent>
      <dc:title>Matplotlib v3.8.3, https://matplotlib.org/</dc:title>
     </cc:Agent>
    </dc:creator>
   </cc:Work>
  </rdf:RDF>
 </metadata>
 <defs>
  <style type="text/css">*{stroke-linejoin: round; stroke-linecap: butt}</style>
 </defs>
 <g id="figure_1">
  <g id="patch_1">
   <path d="M 0 292.113375 
L 512.232 292.113375 
L 512.232 0 
L 0 0 
z
" style="fill: #ffffff"/>
  </g>
  <g id="axes_1">
   <g id="patch_2">
    <path d="M 58.632 245.90175 
L 505.032 245.90175 
L 505.032 24.14175 
L 58.632 24.14175 
z
" style="fill: #fcfcfc"/>
   </g>
   <g id="matplotlib.axis_1">
    <g id="xtick_1">
     <g id="line2d_1">
      <path d="M 59.532206 245.90175 
L 59.532206 24.14175 
" clip-path="url(#pd8dd0073bc)" style="fill: none; stroke: #f2f2f2; stroke-width: 0.8; stroke-linecap: round"/>
     </g>
     <g id="text_1">
      <text style="fill: #262626; font: 13.2px 'DejaVu Sans', 'Bitstream Vera Sans', 'Computer Modern Sans Serif', 'Lucida Grande', 'Verdana', 'Geneva', 'Lucid', 'Arial', 'Helvetica', 'Avant Garde', sans-serif; text-anchor: middle" x="59.532206" y="264.231688" transform="rotate(-0 59.532206 264.231688)">0</text>
     </g>
    </g>
    <g id="xtick_2">
     <g id="line2d_2">
      <path d="M 149.552833 245.90175 
L 149.552833 24.14175 
" clip-path="url(#pd8dd0073bc)" style="fill: none; stroke: #f2f2f2; stroke-width: 0.8; stroke-linecap: round"/>
     </g>
     <g id="text_2">
      <text style="fill: #262626; font: 13.2px 'DejaVu Sans', 'Bitstream Vera Sans', 'Computer Modern Sans Serif', 'Lucida Grande', 'Verdana', 'Geneva', 'Lucid', 'Arial', 'Helvetica', 'Avant Garde', sans-serif; text-anchor: middle" x="149.552833" y="264.231688" transform="rotate(-0 149.552833 264.231688)">200</text>
     </g>
    </g>
    <g id="xtick_3">
     <g id="line2d_3">
      <path d="M 239.57346 245.90175 
L 239.57346 24.14175 
" clip-path="url(#pd8dd0073bc)" style="fill: none; stroke: #f2f2f2; stroke-width: 0.8; stroke-linecap: round"/>
     </g>
     <g id="text_3">
      <text style="fill: #262626; font: 13.2px 'DejaVu Sans', 'Bitstream Vera Sans', 'Computer Modern Sans Serif', 'Lucida Grande', 'Verdana', 'Geneva', 'Lucid', 'Arial', 'Helvetica', 'Avant Garde', sans-serif; text-anchor: middle" x="239.57346" y="264.231688" transform="rotate(-0 239.57346 264.231688)">400</text>
     </g>
    </g>
    <g id="xtick_4">
     <g id="line2d_4">
      <path d="M 329.594086 245.90175 
L 329.594086 24.14175 
" clip-path="url(#pd8dd0073bc)" style="fill: none; stroke: #f2f2f2; stroke-width: 0.8; stroke-linecap: round"/>
     </g>
     <g id="text_4">
      <text style="fill: #262626; font: 13.2px 'DejaVu Sans', 'Bitstream Vera Sans', 'Computer Modern Sans Serif', 'Lucida Grande', 'Verdana', 'Geneva', 'Lucid', 'Arial', 'Helvetica', 'Avant Garde', sans-serif; text-anchor: middle" x="329.594086" y="264.231688" transform="rotate(-0 329.594086 264.231688)">600</text>
     </g>
    </g>
    <g id="xtick_5">
     <g id="line2d_5">
      <path d="M 419.614713 245.90175 
L 419.614713 24.14175 
" clip-path="url(#pd8dd0073bc)" style="fill: none; stroke: #f2f2f2; stroke-width: 0.8; stroke-linecap: round"/>
     </g>
     <g id="text_5">
      <text style="fill: #262626; font: 13.2px 'DejaVu Sans', 'Bitstream Vera Sans', 'Computer Modern Sans Serif', 'Lucida Grande', 'Verdana', 'Geneva', 'Lucid', 'Arial', 'Helvetica', 'Avant Garde', sans-serif; text-anchor: middle" x="419.614713" y="264.231688" transform="rotate(-0 419.614713 264.231688)">800</text>
     </g>
    </g>
    <g id="text_6">
     <text style="fill: #262626; font: 14.4px 'DejaVu Sans', 'Bitstream Vera Sans', 'Computer Modern Sans Serif', 'Lucida Grande', 'Verdana', 'Geneva', 'Lucid', 'Arial', 'Helvetica', 'Avant Garde', sans-serif; text-anchor: middle" x="281.832" y="281.918625" transform="rotate(-0 281.832 281.918625)">Well Reads (Thousands)</text>
    </g>
   </g>
   <g id="matplotlib.axis_2">
    <g id="ytick_1">
     <g id="line2d_6">
      <path d="M 58.632 245.90175 
L 505.032 245.90175 
" clip-path="url(#pd8dd0073bc)" style="fill: none; stroke: #f2f2f2; stroke-width: 0.8; stroke-linecap: round"/>
     </g>
     <g id="text_7">
      <text style="fill: #262626; font: 13.2px 'DejaVu Sans', 'Bitstream Vera Sans', 'Computer Modern Sans Serif', 'Lucida Grande', 'Verdana', 'Geneva', 'Lucid', 'Arial', 'Helvetica', 'Avant Garde', sans-serif; text-anchor: end" x="50.332" y="250.916719" transform="rotate(-0 50.332 250.916719)">0</text>
     </g>
    </g>
    <g id="ytick_2">
     <g id="line2d_7">
      <path d="M 58.632 201.54975 
L 505.032 201.54975 
" clip-path="url(#pd8dd0073bc)" style="fill: none; stroke: #f2f2f2; stroke-width: 0.8; stroke-linecap: round"/>
     </g>
     <g id="text_8">
      <text style="fill: #262626; font: 13.2px 'DejaVu Sans', 'Bitstream Vera Sans', 'Computer Modern Sans Serif', 'Lucida Grande', 'Verdana', 'Geneva', 'Lucid', 'Arial', 'Helvetica', 'Avant Garde', sans-serif; text-anchor: end" x="50.332" y="206.564719" transform="rotate(-0 50.332 206.564719)">20</text>
     </g>
    </g>
    <g id="ytick_3">
     <g id="line2d_8">
      <path d="M 58.632 157.19775 
L 505.032 157.19775 
" clip-path="url(#pd8dd0073bc)" style="fill: none; stroke: #f2f2f2; stroke-width: 0.8; stroke-linecap: round"/>
     </g>
     <g id="text_9">
      <text style="fill: #262626; font: 13.2px 'DejaVu Sans', 'Bitstream Vera Sans', 'Computer Modern Sans Serif', 'Lucida Grande', 'Verdana', 'Geneva', 'Lucid', 'Arial', 'Helvetica', 'Avant Garde', sans-serif; text-anchor: end" x="50.332" y="162.212719" transform="rotate(-0 50.332 162.212719)">40</text>
     </g>
    </g>
    <g id="ytick_4">
     <g id="line2d_9">
      <path d="M 58.632 112.84575 
L 505.032 112.84575 
" clip-path="url(#pd8dd0073bc)" style="fill: none; stroke: #f2f2f2; stroke-width: 0.8; stroke-linecap: round"/>
     </g>
     <g id="text_10">
      <text style="fill: #262626; font: 13.2px 'DejaVu Sans', 'Bitstream Vera Sans', 'Computer Modern Sans Serif', 'Lucida Grande', 'Verdana', 'Geneva', 'Lucid', 'Arial', 'Helvetica', 'Avant Garde', sans-serif; text-anchor: end" x="50.332" y="117.860719" transform="rotate(-0 50.332 117.860719)">60</text>
     </g>
    </g>
    <g id="ytick_5">
     <g id="line2d_10">
      <path d="M 58.632 68.49375 
L 505.032 68.49375 
" clip-path="url(#pd8dd0073bc)" style="fill: none; stroke: #f2f2f2; stroke-width: 0.8; stroke-linecap: round"/>
     </g>
     <g id="text_11">
      <text style="fill: #262626; font: 13.2px 'DejaVu Sans', 'Bitstream Vera Sans', 'Computer Modern Sans Serif', 'Lucida Grande', 'Verdana', 'Geneva', 'Lucid', 'Arial', 'Helvetica', 'Avant Garde', sans-serif; text-anchor: end" x="50.332" y="73.508719" transform="rotate(-0 50.332 73.508719)">80</text>
     </g>
    </g>
    <g id="ytick_6">
     <g id="line2d_11">
      <path d="M 58.632 24.14175 
L 505.032 24.14175 
" clip-path="url(#pd8dd0073bc)" style="fill: none; stroke: #f2f2f2; stroke-width: 0.8; stroke-linecap: round"/>
     </g>
     <g id="text_12">
      <text style="fill: #262626; font: 13.2px 'DejaVu Sans', 'Bitstream Vera Sans', 'Computer Modern Sans Serif', 'Lucida Grande', 'Verdana', 'Geneva', 'Lucid', 'Arial', 'Helvetica', 'Avant Garde', sans-serif; text-anchor: end" x="50.332" y="29.156719" transform="rotate(-0 50.332 29.156719)">100</text>
     </g>
    </g>
    <g id="text_13">
     <text style="fill: #262626; font: 14.4px 'DejaVu Sans', 'Bitstream Vera Sans', 'Computer Modern Sans Serif', 'Lucida Grande', 'Verdana', 'Geneva', 'Lucid', 'Arial', 'Helvetica', 'Avant Garde', sans-serif; text-anchor: middle" x="18.14175" y="135.02175" transform="rotate(-90 18.14175 135.02175)">Number of Wells</text>
    </g>
   </g>
   <g id="PolyCollection_1">
    <defs>
     <path id="mdc61dd295e" d="M 59.535357 -170.397225 
L 59.535357 -46.211625 
L 62.363907 -46.211625 
L 62.363907 -46.211625 
L 65.192457 -46.211625 
L 65.192457 -46.211625 
L 68.021007 -46.211625 
L 68.021007 -46.211625 
L 70.849557 -46.211625 
L 70.849557 -46.211625 
L 73.678108 -46.211625 
L 73.678108 -46.211625 
L 76.506658 -46.211625 
L 76.506658 -46.211625 
L 79.335208 -46.211625 
L 79.335208 -46.211625 
L 82.163758 -46.211625 
L 82.163758 -46.211625 
L 84.992308 -46.211625 
L 84.992308 -46.211625 
L 87.820858 -46.211625 
L 87.820858 -46.211625 
L 90.649408 -46.211625 
L 90.649408 -46.211625 
L 93.477958 -46.211625 
L 93.477958 -46.211625 
L 96.306508 -46.211625 
L 96.306508 -46.211625 
L 99.135059 -46.211625 
L 99.135059 -46.211625 
L 101.963609 -46.211625 
L 101.963609 -46.211625 
L 104.792159 -46.211625 
L 104.792159 -46.211625 
L 107.620709 -46.211625 
L 107.620709 -46.211625 
L 110.449259 -46.211625 
L 110.449259 -46.211625 
L 113.277809 -46.211625 
L 113.277809 -46.211625 
L 116.106359 -46.211625 
L 116.106359 -46.211625 
L 118.934909 -46.211625 
L 118.934909 -46.211625 
L 121.76346 -46.211625 
L 121.76346 -46.211625 
L 124.59201 -46.211625 
L 124.59201 -46.211625 
L 127.42056 -46.211625 
L 127.42056 -46.211625 
L 130.24911 -46.211625 
L 130.24911 -46.211625 
L 133.07766 -46.211625 
L 133.07766 -46.211625 
L 135.90621 -46.211625 
L 135.90621 -46.211625 
L 138.73476 -46.211625 
L 138.73476 -46.211625 
L 141.56331 -46.211625 
L 141.56331 -46.211625 
L 144.39186 -46.211625 
L 144.39186 -46.211625 
L 147.220411 -46.211625 
L 147.220411 -46.211625 
L 150.048961 -46.211625 
L 150.048961 -46.211625 
L 152.877511 -46.211625 
L 152.877511 -46.211625 
L 155.706061 -46.211625 
L 155.706061 -46.211625 
L 158.534611 -46.211625 
L 158.534611 -46.211625 
L 161.363161 -46.211625 
L 161.363161 -46.211625 
L 164.191711 -46.211625 
L 164.191711 -46.211625 
L 167.020261 -46.211625 
L 167.020261 -46.211625 
L 169.848811 -46.211625 
L 169.848811 -46.211625 
L 172.677362 -46.211625 
L 172.677362 -46.211625 
L 175.505912 -46.211625 
L 175.505912 -46.211625 
L 178.334462 -46.211625 
L 178.334462 -46.211625 
L 181.163012 -46.211625 
L 181.163012 -46.211625 
L 183.991562 -46.211625 
L 183.991562 -46.211625 
L 186.820112 -46.211625 
L 186.820112 -46.211625 
L 189.648662 -46.211625 
L 189.648662 -46.211625 
L 192.477212 -46.211625 
L 192.477212 -46.211625 
L 195.305762 -46.211625 
L 195.305762 -46.211625 
L 198.134313 -46.211625 
L 198.134313 -46.211625 
L 200.962863 -46.211625 
L 200.962863 -46.211625 
L 203.791413 -46.211625 
L 203.791413 -46.211625 
L 206.619963 -46.211625 
L 206.619963 -46.211625 
L 209.448513 -46.211625 
L 209.448513 -46.211625 
L 212.277063 -46.211625 
L 212.277063 -46.211625 
L 215.105613 -46.211625 
L 215.105613 -46.211625 
L 217.934163 -46.211625 
L 217.934163 -46.211625 
L 220.762714 -46.211625 
L 220.762714 -46.211625 
L 223.591264 -46.211625 
L 223.591264 -46.211625 
L 226.419814 -46.211625 
L 226.419814 -46.211625 
L 229.248364 -46.211625 
L 229.248364 -46.211625 
L 232.076914 -46.211625 
L 232.076914 -46.211625 
L 234.905464 -46.211625 
L 234.905464 -46.211625 
L 237.734014 -46.211625 
L 237.734014 -46.211625 
L 240.562564 -46.211625 
L 240.562564 -46.211625 
L 243.391114 -46.211625 
L 243.391114 -46.211625 
L 246.219665 -46.211625 
L 246.219665 -46.211625 
L 249.048215 -46.211625 
L 249.048215 -46.211625 
L 251.876765 -46.211625 
L 251.876765 -46.211625 
L 254.705315 -46.211625 
L 254.705315 -46.211625 
L 257.533865 -46.211625 
L 257.533865 -46.211625 
L 260.362415 -46.211625 
L 260.362415 -46.211625 
L 263.190965 -46.211625 
L 263.190965 -46.211625 
L 266.019515 -46.211625 
L 266.019515 -46.211625 
L 268.848065 -46.211625 
L 268.848065 -46.211625 
L 271.676616 -46.211625 
L 271.676616 -46.211625 
L 274.505166 -46.211625 
L 274.505166 -46.211625 
L 277.333716 -46.211625 
L 277.333716 -46.211625 
L 280.162266 -46.211625 
L 280.162266 -46.211625 
L 282.990816 -46.211625 
L 282.990816 -46.211625 
L 285.819366 -46.211625 
L 285.819366 -46.211625 
L 288.647916 -46.211625 
L 288.647916 -46.211625 
L 291.476466 -46.211625 
L 291.476466 -46.211625 
L 294.305016 -46.211625 
L 294.305016 -46.211625 
L 297.133567 -46.211625 
L 297.133567 -46.211625 
L 299.962117 -46.211625 
L 299.962117 -46.211625 
L 302.790667 -46.211625 
L 302.790667 -46.211625 
L 305.619217 -46.211625 
L 305.619217 -46.211625 
L 308.447767 -46.211625 
L 308.447767 -46.211625 
L 311.276317 -46.211625 
L 311.276317 -46.211625 
L 314.104867 -46.211625 
L 314.104867 -46.211625 
L 316.933417 -46.211625 
L 316.933417 -46.211625 
L 319.761968 -46.211625 
L 319.761968 -46.211625 
L 322.590518 -46.211625 
L 322.590518 -46.211625 
L 325.419068 -46.211625 
L 325.419068 -46.211625 
L 328.247618 -46.211625 
L 328.247618 -46.211625 
L 331.076168 -46.211625 
L 331.076168 -46.211625 
L 333.904718 -46.211625 
L 333.904718 -46.211625 
L 336.733268 -46.211625 
L 336.733268 -46.211625 
L 339.561818 -46.211625 
L 339.561818 -46.211625 
L 342.390368 -46.211625 
L 342.390368 -46.211625 
L 345.218919 -46.211625 
L 345.218919 -46.211625 
L 348.047469 -46.211625 
L 348.047469 -46.211625 
L 350.876019 -46.211625 
L 350.876019 -46.211625 
L 353.704569 -46.211625 
L 353.704569 -46.211625 
L 356.533119 -46.211625 
L 356.533119 -46.211625 
L 359.361669 -46.211625 
L 359.361669 -46.211625 
L 362.190219 -46.211625 
L 362.190219 -46.211625 
L 365.018769 -46.211625 
L 365.018769 -46.211625 
L 367.847319 -46.211625 
L 367.847319 -46.211625 
L 370.67587 -46.211625 
L 370.67587 -46.211625 
L 373.50442 -46.211625 
L 373.50442 -46.211625 
L 376.33297 -46.211625 
L 376.33297 -46.211625 
L 379.16152 -46.211625 
L 379.16152 -46.211625 
L 381.99007 -46.211625 
L 381.99007 -46.211625 
L 384.81862 -46.211625 
L 384.81862 -46.211625 
L 387.64717 -46.211625 
L 387.64717 -46.211625 
L 390.47572 -46.211625 
L 390.47572 -46.211625 
L 393.30427 -46.211625 
L 393.30427 -46.211625 
L 396.132821 -46.211625 
L 396.132821 -46.211625 
L 398.961371 -46.211625 
L 398.961371 -46.211625 
L 401.789921 -46.211625 
L 401.789921 -46.211625 
L 404.618471 -46.211625 
L 404.618471 -46.211625 
L 407.447021 -46.211625 
L 407.447021 -46.211625 
L 410.275571 -46.211625 
L 410.275571 -46.211625 
L 413.104121 -46.211625 
L 413.104121 -46.211625 
L 415.932671 -46.211625 
L 415.932671 -46.211625 
L 418.761222 -46.211625 
L 418.761222 -46.211625 
L 421.589772 -46.211625 
L 421.589772 -46.211625 
L 424.418322 -46.211625 
L 424.418322 -46.211625 
L 427.246872 -46.211625 
L 427.246872 -46.211625 
L 430.075422 -46.211625 
L 430.075422 -46.211625 
L 432.903972 -46.211625 
L 432.903972 -46.211625 
L 435.732522 -46.211625 
L 435.732522 -46.211625 
L 438.561072 -46.211625 
L 438.561072 -46.211625 
L 441.389622 -46.211625 
L 441.389622 -46.211625 
L 444.218173 -46.211625 
L 444.218173 -46.211625 
L 447.046723 -46.211625 
L 447.046723 -46.211625 
L 449.875273 -46.211625 
L 449.875273 -46.211625 
L 452.703823 -46.211625 
L 452.703823 -46.211625 
L 455.532373 -46.211625 
L 455.532373 -46.211625 
L 458.360923 -46.211625 
L 458.360923 -46.211625 
L 461.189473 -46.211625 
L 461.189473 -46.211625 
L 464.018023 -46.211625 
L 464.018023 -46.211625 
L 466.846573 -46.211625 
L 466.846573 -46.211625 
L 469.675124 -46.211625 
L 469.675124 -46.211625 
L 472.503674 -46.211625 
L 472.503674 -46.211625 
L 475.332224 -46.211625 
L 475.332224 -46.211625 
L 478.160774 -46.211625 
L 478.160774 -46.211625 
L 480.989324 -46.211625 
L 480.989324 -46.211625 
L 483.817874 -46.211625 
L 483.817874 -46.211625 
L 483.817874 -48.429225 
L 483.817874 -48.429225 
L 483.817874 -48.429225 
L 480.989324 -48.429225 
L 480.989324 -46.211625 
L 478.160774 -46.211625 
L 478.160774 -46.211625 
L 475.332224 -46.211625 
L 475.332224 -46.211625 
L 472.503674 -46.211625 
L 472.503674 -46.211625 
L 469.675124 -46.211625 
L 469.675124 -46.211625 
L 466.846573 -46.211625 
L 466.846573 -46.211625 
L 464.018023 -46.211625 
L 464.018023 -46.211625 
L 461.189473 -46.211625 
L 461.189473 -46.211625 
L 458.360923 -46.211625 
L 458.360923 -46.211625 
L 455.532373 -46.211625 
L 455.532373 -48.429225 
L 452.703823 -48.429225 
L 452.703823 -46.211625 
L 449.875273 -46.211625 
L 449.875273 -46.211625 
L 447.046723 -46.211625 
L 447.046723 -46.211625 
L 444.218173 -46.211625 
L 444.218173 -46.211625 
L 441.389622 -46.211625 
L 441.389622 -46.211625 
L 438.561072 -46.211625 
L 438.561072 -46.211625 
L 435.732522 -46.211625 
L 435.732522 -46.211625 
L 432.903972 -46.211625 
L 432.903972 -46.211625 
L 430.075422 -46.211625 
L 430.075422 -46.211625 
L 427.246872 -46.211625 
L 427.246872 -46.211625 
L 424.418322 -46.211625 
L 424.418322 -46.211625 
L 421.589772 -46.211625 
L 421.589772 -46.211625 
L 418.761222 -46.211625 
L 418.761222 -48.429225 
L 415.932671 -48.429225 
L 415.932671 -46.211625 
L 413.104121 -46.211625 
L 413.104121 -46.211625 
L 410.275571 -46.211625 
L 410.275571 -46.211625 
L 407.447021 -46.211625 
L 407.447021 -48.429225 
L 404.618471 -48.429225 
L 404.618471 -48.429225 
L 401.789921 -48.429225 
L 401.789921 -48.429225 
L 398.961371 -48.429225 
L 398.961371 -52.864425 
L 396.132821 -52.864425 
L 396.132821 -46.211625 
L 393.30427 -46.211625 
L 393.30427 -46.211625 
L 390.47572 -46.211625 
L 390.47572 -50.646825 
L 387.64717 -50.646825 
L 387.64717 -48.429225 
L 384.81862 -48.429225 
L 384.81862 -52.864425 
L 381.99007 -52.864425 
L 381.99007 -48.429225 
L 379.16152 -48.429225 
L 379.16152 -48.429225 
L 376.33297 -48.429225 
L 376.33297 -46.211625 
L 373.50442 -46.211625 
L 373.50442 -48.429225 
L 370.67587 -48.429225 
L 370.67587 -50.646825 
L 367.847319 -50.646825 
L 367.847319 -50.646825 
L 365.018769 -50.646825 
L 365.018769 -46.211625 
L 362.190219 -46.211625 
L 362.190219 -46.211625 
L 359.361669 -46.211625 
L 359.361669 -50.646825 
L 356.533119 -50.646825 
L 356.533119 -46.211625 
L 353.704569 -46.211625 
L 353.704569 -52.864425 
L 350.876019 -52.864425 
L 350.876019 -46.211625 
L 348.047469 -46.211625 
L 348.047469 -50.646825 
L 345.218919 -50.646825 
L 345.218919 -50.646825 
L 342.390368 -50.646825 
L 342.390368 -50.646825 
L 339.561818 -50.646825 
L 339.561818 -52.864425 
L 336.733268 -52.864425 
L 336.733268 -46.211625 
L 333.904718 -46.211625 
L 333.904718 -50.646825 
L 331.076168 -50.646825 
L 331.076168 -59.517225 
L 328.247618 -59.517225 
L 328.247618 -50.646825 
L 325.419068 -50.646825 
L 325.419068 -52.864425 
L 322.590518 -52.864425 
L 322.590518 -52.864425 
L 319.761968 -52.864425 
L 319.761968 -55.082025 
L 316.933417 -55.082025 
L 316.933417 -52.864425 
L 314.104867 -52.864425 
L 314.104867 -48.429225 
L 311.276317 -48.429225 
L 311.276317 -52.864425 
L 308.447767 -52.864425 
L 308.447767 -50.646825 
L 305.619217 -50.646825 
L 305.619217 -50.646825 
L 302.790667 -50.646825 
L 302.790667 -59.517225 
L 299.962117 -59.517225 
L 299.962117 -57.299625 
L 297.133567 -57.299625 
L 297.133567 -52.864425 
L 294.305016 -52.864425 
L 294.305016 -61.734825 
L 291.476466 -61.734825 
L 291.476466 -52.864425 
L 288.647916 -52.864425 
L 288.647916 -57.299625 
L 285.819366 -57.299625 
L 285.819366 -48.429225 
L 282.990816 -48.429225 
L 282.990816 -59.517225 
L 280.162266 -59.517225 
L 280.162266 -63.952425 
L 277.333716 -63.952425 
L 277.333716 -66.170025 
L 274.505166 -66.170025 
L 274.505166 -52.864425 
L 271.676616 -52.864425 
L 271.676616 -63.952425 
L 268.848065 -63.952425 
L 268.848065 -59.517225 
L 266.019515 -59.517225 
L 266.019515 -55.082025 
L 263.190965 -55.082025 
L 263.190965 -52.864425 
L 260.362415 -52.864425 
L 260.362415 -50.646825 
L 257.533865 -50.646825 
L 257.533865 -61.734825 
L 254.705315 -61.734825 
L 254.705315 -72.822825 
L 251.876765 -72.822825 
L 251.876765 -61.734825 
L 249.048215 -61.734825 
L 249.048215 -77.258025 
L 246.219665 -77.258025 
L 246.219665 -75.040425 
L 243.391114 -75.040425 
L 243.391114 -66.170025 
L 240.562564 -66.170025 
L 240.562564 -75.040425 
L 237.734014 -75.040425 
L 237.734014 -81.693225 
L 234.905464 -81.693225 
L 234.905464 -81.693225 
L 232.076914 -81.693225 
L 232.076914 -68.387625 
L 229.248364 -68.387625 
L 229.248364 -72.822825 
L 226.419814 -72.822825 
L 226.419814 -75.040425 
L 223.591264 -75.040425 
L 223.591264 -79.475625 
L 220.762714 -79.475625 
L 220.762714 -68.387625 
L 217.934163 -68.387625 
L 217.934163 -88.346025 
L 215.105613 -88.346025 
L 215.105613 -86.128425 
L 212.277063 -86.128425 
L 212.277063 -106.086825 
L 209.448513 -106.086825 
L 209.448513 -86.128425 
L 206.619963 -86.128425 
L 206.619963 -106.086825 
L 203.791413 -106.086825 
L 203.791413 -92.781225 
L 200.962863 -92.781225 
L 200.962863 -128.262825 
L 198.134313 -128.262825 
L 198.134313 -117.174825 
L 195.305762 -117.174825 
L 195.305762 -114.957225 
L 192.477212 -114.957225 
L 192.477212 -123.827625 
L 189.648662 -123.827625 
L 189.648662 -126.045225 
L 186.820112 -126.045225 
L 186.820112 -114.957225 
L 183.991562 -114.957225 
L 183.991562 -143.786025 
L 181.163012 -143.786025 
L 181.163012 -130.480425 
L 178.334462 -130.480425 
L 178.334462 -172.614825 
L 175.505912 -172.614825 
L 175.505912 -152.656425 
L 172.677362 -152.656425 
L 172.677362 -177.050025 
L 169.848811 -177.050025 
L 169.848811 -143.786025 
L 167.020261 -143.786025 
L 167.020261 -188.138025 
L 164.191711 -188.138025 
L 164.191711 -234.707625 
L 161.363161 -234.707625 
L 161.363161 -214.749225 
L 158.534611 -214.749225 
L 158.534611 -203.661225 
L 155.706061 -203.661225 
L 155.706061 -203.661225 
L 152.877511 -203.661225 
L 152.877511 -230.272425 
L 150.048961 -230.272425 
L 150.048961 -230.272425 
L 147.220411 -230.272425 
L 147.220411 -219.184425 
L 144.39186 -219.184425 
L 144.39186 -228.054825 
L 141.56331 -228.054825 
L 141.56331 -248.013225 
L 138.73476 -248.013225 
L 138.73476 -230.272425 
L 135.90621 -230.272425 
L 135.90621 -265.754025 
L 133.07766 -265.754025 
L 133.07766 -223.619625 
L 130.24911 -223.619625 
L 130.24911 -252.448425 
L 127.42056 -252.448425 
L 127.42056 -230.272425 
L 124.59201 -230.272425 
L 124.59201 -214.749225 
L 121.76346 -214.749225 
L 121.76346 -201.443625 
L 118.934909 -201.443625 
L 118.934909 -168.179625 
L 116.106359 -168.179625 
L 116.106359 -168.179625 
L 113.277809 -168.179625 
L 113.277809 -159.309225 
L 110.449259 -159.309225 
L 110.449259 -146.003625 
L 107.620709 -146.003625 
L 107.620709 -152.656425 
L 104.792159 -152.656425 
L 104.792159 -150.438825 
L 101.963609 -150.438825 
L 101.963609 -146.003625 
L 99.135059 -146.003625 
L 99.135059 -148.221225 
L 96.306508 -148.221225 
L 96.306508 -132.698025 
L 93.477958 -132.698025 
L 93.477958 -119.392425 
L 90.649408 -119.392425 
L 90.649408 -108.304425 
L 87.820858 -108.304425 
L 87.820858 -92.781225 
L 84.992308 -92.781225 
L 84.992308 -90.563625 
L 82.163758 -90.563625 
L 82.163758 -92.781225 
L 79.335208 -92.781225 
L 79.335208 -79.475625 
L 76.506658 -79.475625 
L 76.506658 -66.170025 
L 73.678108 -66.170025 
L 73.678108 -66.170025 
L 70.849557 -66.170025 
L 70.849557 -63.952425 
L 68.021007 -63.952425 
L 68.021007 -63.952425 
L 65.192457 -63.952425 
L 65.192457 -77.258025 
L 62.363907 -77.258025 
L 62.363907 -170.397225 
L 59.535357 -170.397225 
z
" style="stroke: #696969; stroke-width: 0.5"/>
    </defs>
    <g clip-path="url(#pd8dd0073bc)">
     <use xlink:href="#mdc61dd295e" x="0" y="292.113375" style="fill: #696969; fill-opacity: 0.75; stroke: #696969; stroke-width: 0.5"/>
    </g>
   </g>
   <g id="LineCollection_1">
    <path d="M 73.0353 245.90175 
L 73.0353 24.14175 
" clip-path="url(#pd8dd0073bc)" style="fill: none; stroke: #ff0000; stroke-width: 0.5"/>
   </g>
   <g id="patch_3">
    <path d="M 58.632 245.90175 
L 58.632 24.14175 
" style="fill: none; stroke: #e6e6e6; stroke-linejoin: miter; stroke-linecap: square"/>
   </g>
   <g id="patch_4">
    <path d="M 505.032 245.90175 
L 505.032 24.14175 
" style="fill: none; stroke: #e6e6e6; stroke-linejoin: miter; stroke-linecap: square"/>
   </g>
   <g id="patch_5">
    <path d="M 58.632 245.90175 
L 505.032 245.90175 
" style="fill: none; stroke: #e6e6e6; stroke-linejoin: miter; stroke-linecap: square"/>
   </g>
   <g id="patch_6">
    <path d="M 58.632 24.14175 
L 505.032 24.14175 
" style="fill: none; stroke: #e6e6e6; stroke-linejoin: miter; stroke-linecap: square"/>
   </g>
   <g id="text_14">
    <text style="fill: #262626; font: 14.4px 'DejaVu Sans', 'Bitstream Vera Sans', 'Computer Modern Sans Serif', 'Lucida Grande', 'Verdana', 'Geneva', 'Lucid', 'Arial', 'Helvetica', 'Avant Garde', sans-serif; text-anchor: middle" x="281.832" y="18.14175" transform="rotate(-0 281.832 18.14175)">Well Reads Distribution</text>
   </g>
  </g>
 </g>
 <defs>
  <clipPath id="pd8dd0073bc">
   <rect x="58.632" y="24.14175" width="446.4" height="221.76"/>
  </clipPath>
 </defs>
</svg>
