<?xml version="1.0" encoding="utf-8" standalone="no"?>
<!DOCTYPE svg PUBLIC "-//W3C//DTD SVG 1.1//EN"
  "http://www.w3.org/Graphics/SVG/1.1/DTD/svg11.dtd">
<svg xmlns:xlink="http://www.w3.org/1999/xlink" width="420.9885pt" height="336.465375pt" viewBox="0 0 420.9885 336.465375" xmlns="http://www.w3.org/2000/svg" version="1.1">
 <metadata>
  <rdf:RDF xmlns:dc="http://purl.org/dc/elements/1.1/" xmlns:cc="http://creativecommons.org/ns#" xmlns:rdf="http://www.w3.org/1999/02/22-rdf-syntax-ns#">
   <cc:Work>
    <dc:type rdf:resource="http://purl.org/dc/dcmitype/StillImage"/>
    <dc:date>2024-09-24T13:44:05.236578</dc:date>
    <dc:format>image/svg+xml</dc:format>
    <dc:creator>
     <cc:Agent>
      <dc:title>Matplotlib v3.8.3, https://matplotlib.org/</dc:title>
     </cc:Agent>
    </dc:creator>
   </cc:Work>
  </rdf:RDF>
 </metadata>
 <defs>
  <style type="text/css">*{stroke-linejoin: round; stroke-linecap: butt}</style>
 </defs>
 <g id="figure_1">
  <g id="patch_1">
   <path d="M 0 336.465375 
L 420.9885 336.465375 
L 420.9885 0 
L 0 0 
z
" style="fill: #ffffff"/>
  </g>
  <g id="axes_1">
   <g id="patch_2">
    <path d="M 56.6685 290.25375 
L 413.7885 290.25375 
L 413.7885 24.14175 
L 56.6685 24.14175 
z
" style="fill: #fcfcfc"/>
   </g>
   <g id="matplotlib.axis_1">
    <g id="xtick_1">
     <g id="line2d_1">
      <path d="M 121.490012 290.25375 
L 121.490012 24.14175 
" clip-path="url(#p5431114cf1)" style="fill: none; stroke: #f2f2f2; stroke-width: 0.8; stroke-linecap: round"/>
     </g>
     <g id="text_1">
      <text style="fill: #262626; font: 13.2px 'Arial', 'DejaVu Sans', 'Liberation Sans', 'Bitstream Vera Sans', sans-serif; text-anchor: middle" x="121.490012" y="308.583687" transform="rotate(-0 121.490012 308.583687)">−0.5</text>
     </g>
    </g>
    <g id="xtick_2">
     <g id="line2d_2">
      <path d="M 197.854117 290.25375 
L 197.854117 24.14175 
" clip-path="url(#p5431114cf1)" style="fill: none; stroke: #f2f2f2; stroke-width: 0.8; stroke-linecap: round"/>
     </g>
     <g id="text_2">
      <text style="fill: #262626; font: 13.2px 'Arial', 'DejaVu Sans', 'Liberation Sans', 'Bitstream Vera Sans', sans-serif; text-anchor: middle" x="197.854117" y="308.583687" transform="rotate(-0 197.854117 308.583687)">0.0</text>
     </g>
    </g>
    <g id="xtick_3">
     <g id="line2d_3">
      <path d="M 274.218223 290.25375 
L 274.218223 24.14175 
" clip-path="url(#p5431114cf1)" style="fill: none; stroke: #f2f2f2; stroke-width: 0.8; stroke-linecap: round"/>
     </g>
     <g id="text_3">
      <text style="fill: #262626; font: 13.2px 'Arial', 'DejaVu Sans', 'Liberation Sans', 'Bitstream Vera Sans', sans-serif; text-anchor: middle" x="274.218223" y="308.583687" transform="rotate(-0 274.218223 308.583687)">0.5</text>
     </g>
    </g>
    <g id="xtick_4">
     <g id="line2d_4">
      <path d="M 350.582328 290.25375 
L 350.582328 24.14175 
" clip-path="url(#p5431114cf1)" style="fill: none; stroke: #f2f2f2; stroke-width: 0.8; stroke-linecap: round"/>
     </g>
     <g id="text_4">
      <text style="fill: #262626; font: 13.2px 'Arial', 'DejaVu Sans', 'Liberation Sans', 'Bitstream Vera Sans', sans-serif; text-anchor: middle" x="350.582328" y="308.583687" transform="rotate(-0 350.582328 308.583687)">1.0</text>
     </g>
    </g>
    <g id="text_5">
     <text style="fill: #262626; font: 14.4px 'Arial', 'DejaVu Sans', 'Liberation Sans', 'Bitstream Vera Sans', sans-serif; text-anchor: middle" x="235.2285" y="326.270625" transform="rotate(-0 235.2285 326.270625)">Magratio</text>
    </g>
   </g>
   <g id="matplotlib.axis_2">
    <g id="ytick_1">
     <g id="line2d_5">
      <path d="M 56.6685 278.15775 
L 413.7885 278.15775 
" clip-path="url(#p5431114cf1)" style="fill: none; stroke: #f2f2f2; stroke-width: 0.8; stroke-linecap: round"/>
     </g>
     <g id="text_6">
      <!-- $\mathdefault{10^{0}}$ -->
      <g style="fill: #262626" transform="translate(25.1365 283.172719)">
       <text>
        <tspan style="font: 13.2px 'DejaVu Sans'" x="0 8.390289" y="-0.10000000000000142">10</tspan>
        <tspan style="font: 9.24px 'DejaVu Sans'" x="16.906907" y="-5.153125000000001">0</tspan>
       </text>
      </g>
     </g>
    </g>
    <g id="ytick_2">
     <g id="line2d_6">
      <path d="M 56.6685 220.933498 
L 413.7885 220.933498 
" clip-path="url(#p5431114cf1)" style="fill: none; stroke: #f2f2f2; stroke-width: 0.8; stroke-linecap: round"/>
     </g>
     <g id="text_7">
      <!-- $\mathdefault{10^{1}}$ -->
      <g style="fill: #262626" transform="translate(25.1365 225.948467)">
       <text>
        <tspan style="font: 13.2px 'DejaVu Sans'" x="0 8.390289" y="-0.22031250000000036">10</tspan>
        <tspan style="font: 9.24px 'DejaVu Sans'" x="16.906907" y="-5.2734375">1</tspan>
       </text>
      </g>
     </g>
    </g>
    <g id="ytick_3">
     <g id="line2d_7">
      <path d="M 56.6685 163.709247 
L 413.7885 163.709247 
" clip-path="url(#p5431114cf1)" style="fill: none; stroke: #f2f2f2; stroke-width: 0.8; stroke-linecap: round"/>
     </g>
     <g id="text_8">
      <!-- $\mathdefault{10^{2}}$ -->
      <g style="fill: #262626" transform="translate(25.1365 168.724215)">
       <text>
        <tspan style="font: 13.2px 'DejaVu Sans'" x="0 8.390289" y="-0.10000000000000142">10</tspan>
        <tspan style="font: 9.24px 'DejaVu Sans'" x="16.906907" y="-5.153125000000001">2</tspan>
       </text>
      </g>
     </g>
    </g>
    <g id="ytick_4">
     <g id="line2d_8">
      <path d="M 56.6685 106.484995 
L 413.7885 106.484995 
" clip-path="url(#p5431114cf1)" style="fill: none; stroke: #f2f2f2; stroke-width: 0.8; stroke-linecap: round"/>
     </g>
     <g id="text_9">
      <!-- $\mathdefault{10^{3}}$ -->
      <g style="fill: #262626" transform="translate(25.1365 111.499964)">
       <text>
        <tspan style="font: 13.2px 'DejaVu Sans'" x="0 8.390289" y="-0.10000000000000142">10</tspan>
        <tspan style="font: 9.24px 'DejaVu Sans'" x="16.906907" y="-5.153125000000001">3</tspan>
       </text>
      </g>
     </g>
    </g>
    <g id="ytick_5">
     <g id="line2d_9">
      <path d="M 56.6685 49.260743 
L 413.7885 49.260743 
" clip-path="url(#p5431114cf1)" style="fill: none; stroke: #f2f2f2; stroke-width: 0.8; stroke-linecap: round"/>
     </g>
     <g id="text_10">
      <!-- $\mathdefault{10^{4}}$ -->
      <g style="fill: #262626" transform="translate(25.1365 54.275712)">
       <text>
        <tspan style="font: 13.2px 'DejaVu Sans'" x="0 8.390289" y="-0.22031250000000036">10</tspan>
        <tspan style="font: 9.24px 'DejaVu Sans'" x="16.906907" y="-5.2734375">4</tspan>
       </text>
      </g>
     </g>
    </g>
    <g id="ytick_6"/>
    <g id="ytick_7"/>
    <g id="ytick_8"/>
    <g id="ytick_9"/>
    <g id="ytick_10"/>
    <g id="ytick_11"/>
    <g id="ytick_12"/>
    <g id="ytick_13"/>
    <g id="ytick_14"/>
    <g id="ytick_15"/>
    <g id="ytick_16"/>
    <g id="ytick_17"/>
    <g id="ytick_18"/>
    <g id="ytick_19"/>
    <g id="ytick_20"/>
    <g id="ytick_21"/>
    <g id="ytick_22"/>
    <g id="ytick_23"/>
    <g id="ytick_24"/>
    <g id="ytick_25"/>
    <g id="ytick_26"/>
    <g id="ytick_27"/>
    <g id="ytick_28"/>
    <g id="ytick_29"/>
    <g id="ytick_30"/>
    <g id="ytick_31"/>
    <g id="ytick_32"/>
    <g id="ytick_33"/>
    <g id="ytick_34"/>
    <g id="ytick_35"/>
    <g id="ytick_36"/>
    <g id="ytick_37"/>
    <g id="ytick_38"/>
    <g id="ytick_39"/>
    <g id="ytick_40"/>
    <g id="ytick_41"/>
    <g id="text_11">
     <text style="fill: #262626; font: 14.4px 'Arial', 'DejaVu Sans', 'Liberation Sans', 'Bitstream Vera Sans', sans-serif; text-anchor: middle" x="18.14175" y="157.19775" transform="rotate(-90 18.14175 157.19775)">Interactions</text>
    </g>
   </g>
   <g id="PolyCollection_1">
    <path d="M 59.723064 238.159715 
L 59.723064 57502.409412 
L 61.478119 57502.409412 
L 61.478119 57502.409412 
L 63.233173 57502.409412 
L 63.233173 57502.409412 
L 64.988227 57502.409412 
L 64.988227 57502.409412 
L 66.743282 57502.409412 
L 66.743282 57502.409412 
L 68.498336 57502.409412 
L 68.498336 57502.409412 
L 70.25339 57502.409412 
L 70.25339 57502.409412 
L 72.008445 57502.409412 
L 72.008445 57502.409412 
L 73.763499 57502.409412 
L 73.763499 57502.409412 
L 75.518553 57502.409412 
L 75.518553 57502.409412 
L 77.273608 57502.409412 
L 77.273608 57502.409412 
L 79.028662 57502.409412 
L 79.028662 57502.409412 
L 80.783717 57502.409412 
L 80.783717 57502.409412 
L 82.538771 57502.409412 
L 82.538771 57502.409412 
L 84.293825 57502.409412 
L 84.293825 57502.409412 
L 86.04888 57502.409412 
L 86.04888 57502.409412 
L 87.803934 57502.409412 
L 87.803934 57502.409412 
L 89.558988 57502.409412 
L 89.558988 57502.409412 
L 91.314043 57502.409412 
L 91.314043 57502.409412 
L 93.069097 57502.409412 
L 93.069097 57502.409412 
L 94.824151 57502.409412 
L 94.824151 57502.409412 
L 96.579206 57502.409412 
L 96.579206 57502.409412 
L 98.33426 57502.409412 
L 98.33426 57502.409412 
L 100.089314 57502.409412 
L 100.089314 57502.409412 
L 101.844369 57502.409412 
L 101.844369 57502.409412 
L 103.599423 57502.409412 
L 103.599423 57502.409412 
L 105.354478 57502.409412 
L 105.354478 57502.409412 
L 107.109532 57502.409412 
L 107.109532 57502.409412 
L 108.864586 57502.409412 
L 108.864586 57502.409412 
L 110.619641 57502.409412 
L 110.619641 57502.409412 
L 112.374695 57502.409412 
L 112.374695 57502.409412 
L 114.129749 57502.409412 
L 114.129749 57502.409412 
L 115.884804 57502.409412 
L 115.884804 57502.409412 
L 117.639858 57502.409412 
L 117.639858 57502.409412 
L 119.394912 57502.409412 
L 119.394912 57502.409412 
L 121.149967 57502.409412 
L 121.149967 57502.409412 
L 122.905021 57502.409412 
L 122.905021 57502.409412 
L 124.660075 57502.409412 
L 124.660075 57502.409412 
L 126.41513 57502.409412 
L 126.41513 57502.409412 
L 128.170184 57502.409412 
L 128.170184 57502.409412 
L 129.925239 57502.409412 
L 129.925239 57502.409412 
L 131.680293 57502.409412 
L 131.680293 57502.409412 
L 133.435347 57502.409412 
L 133.435347 57502.409412 
L 135.190402 57502.409412 
L 135.190402 57502.409412 
L 136.945456 57502.409412 
L 136.945456 57502.409412 
L 138.70051 57502.409412 
L 138.70051 57502.409412 
L 140.455565 57502.409412 
L 140.455565 57502.409412 
L 142.210619 57502.409412 
L 142.210619 57502.409412 
L 143.965673 57502.409412 
L 143.965673 57502.409412 
L 145.720728 57502.409412 
L 145.720728 57502.409412 
L 147.475782 57502.409412 
L 147.475782 57502.409412 
L 149.230836 57502.409412 
L 149.230836 57502.409412 
L 150.985891 57502.409412 
L 150.985891 57502.409412 
L 152.740945 57502.409412 
L 152.740945 57502.409412 
L 154.496 57502.409412 
L 154.496 57502.409412 
L 156.251054 57502.409412 
L 156.251054 57502.409412 
L 158.006108 57502.409412 
L 158.006108 57502.409412 
L 159.761163 57502.409412 
L 159.761163 57502.409412 
L 161.516217 57502.409412 
L 161.516217 57502.409412 
L 163.271271 57502.409412 
L 163.271271 57502.409412 
L 165.026326 57502.409412 
L 165.026326 57502.409412 
L 166.78138 57502.409412 
L 166.78138 57502.409412 
L 168.536434 57502.409412 
L 168.536434 57502.409412 
L 170.291489 57502.409412 
L 170.291489 57502.409412 
L 172.046543 57502.409412 
L 172.046543 57502.409412 
L 173.801597 57502.409412 
L 173.801597 57502.409412 
L 175.556652 57502.409412 
L 175.556652 57502.409412 
L 177.311706 57502.409412 
L 177.311706 57502.409412 
L 179.066761 57502.409412 
L 179.066761 57502.409412 
L 180.821815 57502.409412 
L 180.821815 57502.409412 
L 182.576869 57502.409412 
L 182.576869 57502.409412 
L 184.331924 57502.409412 
L 184.331924 57502.409412 
L 186.086978 57502.409412 
L 186.086978 57502.409412 
L 187.842032 57502.409412 
L 187.842032 57502.409412 
L 189.597087 57502.409412 
L 189.597087 57502.409412 
L 191.352141 57502.409412 
L 191.352141 57502.409412 
L 193.107195 57502.409412 
L 193.107195 57502.409412 
L 194.86225 57502.409412 
L 194.86225 57502.409412 
L 196.617304 57502.409412 
L 196.617304 57502.409412 
L 198.372358 57502.409412 
L 198.372358 57502.409412 
L 200.127413 57502.409412 
L 200.127413 57502.409412 
L 201.882467 57502.409412 
L 201.882467 57502.409412 
L 203.637522 57502.409412 
L 203.637522 57502.409412 
L 205.392576 57502.409412 
L 205.392576 57502.409412 
L 207.14763 57502.409412 
L 207.14763 57502.409412 
L 208.902685 57502.409412 
L 208.902685 57502.409412 
L 210.657739 57502.409412 
L 210.657739 57502.409412 
L 212.412793 57502.409412 
L 212.412793 57502.409412 
L 214.167848 57502.409412 
L 214.167848 57502.409412 
L 215.922902 57502.409412 
L 215.922902 57502.409412 
L 217.677956 57502.409412 
L 217.677956 57502.409412 
L 219.433011 57502.409412 
L 219.433011 57502.409412 
L 221.188065 57502.409412 
L 221.188065 57502.409412 
L 222.943119 57502.409412 
L 222.943119 57502.409412 
L 224.698174 57502.409412 
L 224.698174 57502.409412 
L 226.453228 57502.409412 
L 226.453228 57502.409412 
L 228.208283 57502.409412 
L 228.208283 57502.409412 
L 229.963337 57502.409412 
L 229.963337 57502.409412 
L 231.718391 57502.409412 
L 231.718391 57502.409412 
L 233.473446 57502.409412 
L 233.473446 57502.409412 
L 235.2285 57502.409412 
L 235.2285 57502.409412 
L 236.983554 57502.409412 
L 236.983554 57502.409412 
L 238.738609 57502.409412 
L 238.738609 57502.409412 
L 240.493663 57502.409412 
L 240.493663 57502.409412 
L 242.248717 57502.409412 
L 242.248717 57502.409412 
L 244.003772 57502.409412 
L 244.003772 57502.409412 
L 245.758826 57502.409412 
L 245.758826 57502.409412 
L 247.513881 57502.409412 
L 247.513881 57502.409412 
L 249.268935 57502.409412 
L 249.268935 57502.409412 
L 251.023989 57502.409412 
L 251.023989 57502.409412 
L 252.779044 57502.409412 
L 252.779044 57502.409412 
L 254.534098 57502.409412 
L 254.534098 57502.409412 
L 256.289152 57502.409412 
L 256.289152 57502.409412 
L 258.044207 57502.409412 
L 258.044207 57502.409412 
L 259.799261 57502.409412 
L 259.799261 57502.409412 
L 261.554315 57502.409412 
L 261.554315 57502.409412 
L 263.30937 57502.409412 
L 263.30937 57502.409412 
L 265.064424 57502.409412 
L 265.064424 57502.409412 
L 266.819478 57502.409412 
L 266.819478 57502.409412 
L 268.574533 57502.409412 
L 268.574533 57502.409412 
L 270.329587 57502.409412 
L 270.329587 57502.409412 
L 272.084642 57502.409412 
L 272.084642 57502.409412 
L 273.839696 57502.409412 
L 273.839696 57502.409412 
L 275.59475 57502.409412 
L 275.59475 57502.409412 
L 277.349805 57502.409412 
L 277.349805 57502.409412 
L 279.104859 57502.409412 
L 279.104859 57502.409412 
L 280.859913 57502.409412 
L 280.859913 57502.409412 
L 282.614968 57502.409412 
L 282.614968 57502.409412 
L 284.370022 57502.409412 
L 284.370022 57502.409412 
L 286.125076 57502.409412 
L 286.125076 57502.409412 
L 287.880131 57502.409412 
L 287.880131 57502.409412 
L 289.635185 57502.409412 
L 289.635185 57502.409412 
L 291.390239 57502.409412 
L 291.390239 57502.409412 
L 293.145294 57502.409412 
L 293.145294 57502.409412 
L 294.900348 57502.409412 
L 294.900348 57502.409412 
L 296.655403 57502.409412 
L 296.655403 57502.409412 
L 298.410457 57502.409412 
L 298.410457 57502.409412 
L 300.165511 57502.409412 
L 300.165511 57502.409412 
L 301.920566 57502.409412 
L 301.920566 57502.409412 
L 303.67562 57502.409412 
L 303.67562 57502.409412 
L 305.430674 57502.409412 
L 305.430674 57502.409412 
L 307.185729 57502.409412 
L 307.185729 57502.409412 
L 308.940783 57502.409412 
L 308.940783 57502.409412 
L 310.695837 57502.409412 
L 310.695837 57502.409412 
L 312.450892 57502.409412 
L 312.450892 57502.409412 
L 314.205946 57502.409412 
L 314.205946 57502.409412 
L 315.961 57502.409412 
L 315.961 57502.409412 
L 317.716055 57502.409412 
L 317.716055 57502.409412 
L 319.471109 57502.409412 
L 319.471109 57502.409412 
L 321.226164 57502.409412 
L 321.226164 57502.409412 
L 322.981218 57502.409412 
L 322.981218 57502.409412 
L 324.736272 57502.409412 
L 324.736272 57502.409412 
L 326.491327 57502.409412 
L 326.491327 57502.409412 
L 328.246381 57502.409412 
L 328.246381 57502.409412 
L 330.001435 57502.409412 
L 330.001435 57502.409412 
L 331.75649 57502.409412 
L 331.75649 57502.409412 
L 333.511544 57502.409412 
L 333.511544 57502.409412 
L 335.266598 57502.409412 
L 335.266598 57502.409412 
L 337.021653 57502.409412 
L 337.021653 57502.409412 
L 338.776707 57502.409412 
L 338.776707 57502.409412 
L 340.531761 57502.409412 
L 340.531761 57502.409412 
L 342.286816 57502.409412 
L 342.286816 57502.409412 
L 344.04187 57502.409412 
L 344.04187 57502.409412 
L 345.796925 57502.409412 
L 345.796925 57502.409412 
L 347.551979 57502.409412 
L 347.551979 57502.409412 
L 349.307033 57502.409412 
L 349.307033 57502.409412 
L 351.062088 57502.409412 
L 351.062088 57502.409412 
L 352.817142 57502.409412 
L 352.817142 57502.409412 
L 354.572196 57502.409412 
L 354.572196 57502.409412 
L 356.327251 57502.409412 
L 356.327251 57502.409412 
L 358.082305 57502.409412 
L 358.082305 57502.409412 
L 359.837359 57502.409412 
L 359.837359 57502.409412 
L 361.592414 57502.409412 
L 361.592414 57502.409412 
L 363.347468 57502.409412 
L 363.347468 57502.409412 
L 365.102522 57502.409412 
L 365.102522 57502.409412 
L 366.857577 57502.409412 
L 366.857577 57502.409412 
L 368.612631 57502.409412 
L 368.612631 57502.409412 
L 370.367686 57502.409412 
L 370.367686 57502.409412 
L 372.12274 57502.409412 
L 372.12274 57502.409412 
L 373.877794 57502.409412 
L 373.877794 57502.409412 
L 375.632849 57502.409412 
L 375.632849 57502.409412 
L 377.387903 57502.409412 
L 377.387903 57502.409412 
L 379.142957 57502.409412 
L 379.142957 57502.409412 
L 380.898012 57502.409412 
L 380.898012 57502.409412 
L 382.653066 57502.409412 
L 382.653066 57502.409412 
L 384.40812 57502.409412 
L 384.40812 57502.409412 
L 386.163175 57502.409412 
L 386.163175 57502.409412 
L 387.918229 57502.409412 
L 387.918229 57502.409412 
L 389.673283 57502.409412 
L 389.673283 57502.409412 
L 391.428338 57502.409412 
L 391.428338 57502.409412 
L 393.183392 57502.409412 
L 393.183392 57502.409412 
L 394.938447 57502.409412 
L 394.938447 57502.409412 
L 396.693501 57502.409412 
L 396.693501 57502.409412 
L 398.448555 57502.409412 
L 398.448555 57502.409412 
L 400.20361 57502.409412 
L 400.20361 57502.409412 
L 401.958664 57502.409412 
L 401.958664 57502.409412 
L 403.713718 57502.409412 
L 403.713718 57502.409412 
L 405.468773 57502.409412 
L 405.468773 57502.409412 
L 407.223827 57502.409412 
L 407.223827 57502.409412 
L 408.978881 57502.409412 
L 408.978881 57502.409412 
L 410.733936 57502.409412 
L 410.733936 57502.409412 
L 410.733936 278.15775 
L 410.733936 278.15775 
L 410.733936 278.15775 
L 408.978881 278.15775 
L 408.978881 57502.409412 
L 407.223827 57502.409412 
L 407.223827 57502.409412 
L 405.468773 57502.409412 
L 405.468773 57502.409412 
L 403.713718 57502.409412 
L 403.713718 57502.409412 
L 401.958664 57502.409412 
L 401.958664 57502.409412 
L 400.20361 57502.409412 
L 400.20361 57502.409412 
L 398.448555 57502.409412 
L 398.448555 57502.409412 
L 396.693501 57502.409412 
L 396.693501 57502.409412 
L 394.938447 57502.409412 
L 394.938447 57502.409412 
L 393.183392 57502.409412 
L 393.183392 57502.409412 
L 391.428338 57502.409412 
L 391.428338 57502.409412 
L 389.673283 57502.409412 
L 389.673283 57502.409412 
L 387.918229 57502.409412 
L 387.918229 57502.409412 
L 386.163175 57502.409412 
L 386.163175 57502.409412 
L 384.40812 57502.409412 
L 384.40812 57502.409412 
L 382.653066 57502.409412 
L 382.653066 57502.409412 
L 380.898012 57502.409412 
L 380.898012 57502.409412 
L 379.142957 57502.409412 
L 379.142957 57502.409412 
L 377.387903 57502.409412 
L 377.387903 57502.409412 
L 375.632849 57502.409412 
L 375.632849 57502.409412 
L 373.877794 57502.409412 
L 373.877794 57502.409412 
L 372.12274 57502.409412 
L 372.12274 57502.409412 
L 370.367686 57502.409412 
L 370.367686 57502.409412 
L 368.612631 57502.409412 
L 368.612631 57502.409412 
L 366.857577 57502.409412 
L 366.857577 57502.409412 
L 365.102522 57502.409412 
L 365.102522 57502.409412 
L 363.347468 57502.409412 
L 363.347468 57502.409412 
L 361.592414 57502.409412 
L 361.592414 57502.409412 
L 359.837359 57502.409412 
L 359.837359 57502.409412 
L 358.082305 57502.409412 
L 358.082305 57502.409412 
L 356.327251 57502.409412 
L 356.327251 57502.409412 
L 354.572196 57502.409412 
L 354.572196 57502.409412 
L 352.817142 57502.409412 
L 352.817142 57502.409412 
L 351.062088 57502.409412 
L 351.062088 57502.409412 
L 349.307033 57502.409412 
L 349.307033 260.931534 
L 347.551979 260.931534 
L 347.551979 278.15775 
L 345.796925 278.15775 
L 345.796925 57502.409412 
L 344.04187 57502.409412 
L 344.04187 57502.409412 
L 342.286816 57502.409412 
L 342.286816 57502.409412 
L 340.531761 57502.409412 
L 340.531761 278.15775 
L 338.776707 278.15775 
L 338.776707 278.15775 
L 337.021653 278.15775 
L 337.021653 57502.409412 
L 335.266598 57502.409412 
L 335.266598 57502.409412 
L 333.511544 57502.409412 
L 333.511544 57502.409412 
L 331.75649 57502.409412 
L 331.75649 278.15775 
L 330.001435 278.15775 
L 330.001435 57502.409412 
L 328.246381 57502.409412 
L 328.246381 57502.409412 
L 326.491327 57502.409412 
L 326.491327 278.15775 
L 324.736272 278.15775 
L 324.736272 57502.409412 
L 322.981218 57502.409412 
L 322.981218 278.15775 
L 321.226164 278.15775 
L 321.226164 278.15775 
L 319.471109 278.15775 
L 319.471109 57502.409412 
L 317.716055 57502.409412 
L 317.716055 57502.409412 
L 315.961 57502.409412 
L 315.961 57502.409412 
L 314.205946 57502.409412 
L 314.205946 57502.409412 
L 312.450892 57502.409412 
L 312.450892 278.15775 
L 310.695837 278.15775 
L 310.695837 278.15775 
L 308.940783 278.15775 
L 308.940783 57502.409412 
L 307.185729 57502.409412 
L 307.185729 278.15775 
L 305.430674 278.15775 
L 305.430674 260.931534 
L 303.67562 260.931534 
L 303.67562 278.15775 
L 301.920566 278.15775 
L 301.920566 57502.409412 
L 300.165511 57502.409412 
L 300.165511 278.15775 
L 298.410457 278.15775 
L 298.410457 278.15775 
L 296.655403 278.15775 
L 296.655403 57502.409412 
L 294.900348 57502.409412 
L 294.900348 57502.409412 
L 293.145294 57502.409412 
L 293.145294 278.15775 
L 291.390239 278.15775 
L 291.390239 57502.409412 
L 289.635185 57502.409412 
L 289.635185 57502.409412 
L 287.880131 57502.409412 
L 287.880131 243.705318 
L 286.125076 243.705318 
L 286.125076 250.854843 
L 284.370022 250.854843 
L 284.370022 57502.409412 
L 282.614968 57502.409412 
L 282.614968 57502.409412 
L 280.859913 57502.409412 
L 280.859913 278.15775 
L 279.104859 278.15775 
L 279.104859 278.15775 
L 277.349805 278.15775 
L 277.349805 57502.409412 
L 275.59475 57502.409412 
L 275.59475 57502.409412 
L 273.839696 57502.409412 
L 273.839696 260.931534 
L 272.084642 260.931534 
L 272.084642 57502.409412 
L 270.329587 57502.409412 
L 270.329587 57502.409412 
L 268.574533 57502.409412 
L 268.574533 278.15775 
L 266.819478 278.15775 
L 266.819478 278.15775 
L 265.064424 278.15775 
L 265.064424 260.931534 
L 263.30937 260.931534 
L 263.30937 278.15775 
L 261.554315 278.15775 
L 261.554315 278.15775 
L 259.799261 278.15775 
L 259.799261 250.854843 
L 258.044207 250.854843 
L 258.044207 57502.409412 
L 256.289152 57502.409412 
L 256.289152 57502.409412 
L 254.534098 57502.409412 
L 254.534098 278.15775 
L 252.779044 278.15775 
L 252.779044 250.854843 
L 251.023989 250.854843 
L 251.023989 278.15775 
L 249.268935 278.15775 
L 249.268935 57502.409412 
L 247.513881 57502.409412 
L 247.513881 260.931534 
L 245.758826 260.931534 
L 245.758826 250.854843 
L 244.003772 250.854843 
L 244.003772 260.931534 
L 242.248717 260.931534 
L 242.248717 229.797647 
L 240.493663 229.797647 
L 240.493663 250.854843 
L 238.738609 250.854843 
L 238.738609 250.854843 
L 236.983554 250.854843 
L 236.983554 238.159715 
L 235.2285 238.159715 
L 235.2285 278.15775 
L 233.473446 278.15775 
L 233.473446 238.159715 
L 231.718391 238.159715 
L 231.718391 260.931534 
L 229.963337 260.931534 
L 229.963337 250.854843 
L 228.208283 250.854843 
L 228.208283 233.628627 
L 226.453228 233.628627 
L 226.453228 223.551936 
L 224.698174 223.551936 
L 224.698174 223.551936 
L 222.943119 223.551936 
L 222.943119 226.479101 
L 221.188065 226.479101 
L 221.188065 212.571431 
L 219.433011 212.571431 
L 219.433011 200.233894 
L 217.677956 200.233894 
L 217.677956 202.49474 
L 215.922902 202.49474 
L 215.922902 206.32572 
L 214.167848 206.32572 
L 214.167848 191.261926 
L 212.412793 191.261926 
L 212.412793 188.41858 
L 210.657739 188.41858 
L 210.657739 179.487354 
L 208.902685 179.487354 
L 208.902685 164.983997 
L 207.14763 164.983997 
L 207.14763 150.964463 
L 205.392576 150.964463 
L 205.392576 144.227587 
L 203.637522 144.227587 
L 203.637522 124.88154 
L 201.882467 124.88154 
L 201.882467 115.313666 
L 200.127413 115.313666 
L 200.127413 94.572478 
L 198.372358 94.572478 
L 198.372358 53.413983 
L 196.617304 53.413983 
L 196.617304 37.659473 
L 194.86225 37.659473 
L 194.86225 36.23775 
L 193.107195 36.23775 
L 193.107195 44.122053 
L 191.352141 44.122053 
L 191.352141 53.496362 
L 189.597087 53.496362 
L 189.597087 61.18109 
L 187.842032 61.18109 
L 187.842032 69.260517 
L 186.086978 69.260517 
L 186.086978 78.544189 
L 184.331924 78.544189 
L 184.331924 86.99199 
L 182.576869 86.99199 
L 182.576869 93.093901 
L 180.821815 93.093901 
L 180.821815 98.953215 
L 179.066761 98.953215 
L 179.066761 103.846683 
L 177.311706 103.846683 
L 177.311706 111.265855 
L 175.556652 111.265855 
L 175.556652 115.598916 
L 173.801597 115.598916 
L 173.801597 116.773832 
L 172.046543 116.773832 
L 172.046543 121.569508 
L 170.291489 121.569508 
L 170.291489 125.621873 
L 168.536434 125.621873 
L 168.536434 134.570513 
L 166.78138 134.570513 
L 166.78138 139.772268 
L 165.026326 139.772268 
L 165.026326 142.901823 
L 163.271271 142.901823 
L 163.271271 149.519162 
L 161.516217 149.519162 
L 161.516217 152.499036 
L 159.761163 152.499036 
L 159.761163 154.475084 
L 158.006108 154.475084 
L 158.006108 163.709247 
L 156.251054 163.709247 
L 156.251054 163.959019 
L 154.496 163.959019 
L 154.496 166.886184 
L 152.740945 166.886184 
L 152.740945 173.293799 
L 150.985891 173.293799 
L 150.985891 174.03571 
L 149.230836 174.03571 
L 149.230836 174.800453 
L 147.475782 174.800453 
L 147.475782 175.191834 
L 145.720728 175.191834 
L 145.720728 179.487354 
L 143.965673 179.487354 
L 143.965673 179.960743 
L 142.210619 179.960743 
L 142.210619 192.026669 
L 140.455565 192.026669 
L 140.455565 188.41858 
L 138.70051 188.41858 
L 138.70051 186.481066 
L 136.945456 186.481066 
L 136.945456 192.815693 
L 135.190402 192.815693 
L 135.190402 192.815693 
L 133.435347 192.815693 
L 133.435347 202.49474 
L 131.680293 202.49474 
L 131.680293 199.176195 
L 129.925239 199.176195 
L 129.925239 189.099504 
L 128.170184 189.099504 
L 128.170184 226.479101 
L 126.41513 226.479101 
L 126.41513 210.856808 
L 124.660075 210.856808 
L 124.660075 238.159715 
L 122.905021 238.159715 
L 122.905021 214.413175 
L 121.149967 214.413175 
L 121.149967 238.159715 
L 119.394912 238.159715 
L 119.394912 214.413175 
L 117.639858 214.413175 
L 117.639858 229.797647 
L 115.884804 229.797647 
L 115.884804 223.551936 
L 114.129749 223.551936 
L 114.129749 223.551936 
L 112.374695 223.551936 
L 112.374695 229.797647 
L 110.619641 229.797647 
L 110.619641 226.479101 
L 108.864586 226.479101 
L 108.864586 250.854843 
L 107.109532 250.854843 
L 107.109532 226.479101 
L 105.354478 226.479101 
L 105.354478 260.931534 
L 103.599423 260.931534 
L 103.599423 220.933498 
L 101.844369 220.933498 
L 101.844369 250.854843 
L 100.089314 250.854843 
L 100.089314 238.159715 
L 98.33426 238.159715 
L 98.33426 226.479101 
L 96.579206 226.479101 
L 96.579206 226.479101 
L 94.824151 226.479101 
L 94.824151 250.854843 
L 93.069097 250.854843 
L 93.069097 233.628627 
L 91.314043 233.628627 
L 91.314043 229.797647 
L 89.558988 229.797647 
L 89.558988 260.931534 
L 87.803934 260.931534 
L 87.803934 260.931534 
L 86.04888 260.931534 
L 86.04888 278.15775 
L 84.293825 278.15775 
L 84.293825 238.159715 
L 82.538771 238.159715 
L 82.538771 243.705318 
L 80.783717 243.705318 
L 80.783717 233.628627 
L 79.028662 233.628627 
L 79.028662 229.797647 
L 77.273608 229.797647 
L 77.273608 243.705318 
L 75.518553 243.705318 
L 75.518553 260.931534 
L 73.763499 260.931534 
L 73.763499 260.931534 
L 72.008445 260.931534 
L 72.008445 250.854843 
L 70.25339 250.854843 
L 70.25339 243.705318 
L 68.498336 243.705318 
L 68.498336 57502.409412 
L 66.743282 57502.409412 
L 66.743282 238.159715 
L 64.988227 238.159715 
L 64.988227 233.628627 
L 63.233173 233.628627 
L 63.233173 278.15775 
L 61.478119 278.15775 
L 61.478119 238.159715 
L 59.723064 238.159715 
z
" clip-path="url(#p5431114cf1)" style="fill: #696969; fill-opacity: 0.75; stroke: #696969; stroke-width: 0.5"/>
   </g>
   <g id="LineCollection_1">
    <path d="M 228.399759 337.465375 
L 228.399759 21.957837 
" clip-path="url(#p5431114cf1)" style="fill: none; stroke: #ff0000; stroke-width: 0.5"/>
   </g>
   <g id="patch_3">
    <path d="M 56.6685 290.25375 
L 56.6685 24.14175 
" style="fill: none; stroke: #e6e6e6; stroke-linejoin: miter; stroke-linecap: square"/>
   </g>
   <g id="patch_4">
    <path d="M 413.7885 290.25375 
L 413.7885 24.14175 
" style="fill: none; stroke: #e6e6e6; stroke-linejoin: miter; stroke-linecap: square"/>
   </g>
   <g id="patch_5">
    <path d="M 56.6685 290.25375 
L 413.7885 290.25375 
" style="fill: none; stroke: #e6e6e6; stroke-linejoin: miter; stroke-linecap: square"/>
   </g>
   <g id="patch_6">
    <path d="M 56.6685 24.14175 
L 413.7885 24.14175 
" style="fill: none; stroke: #e6e6e6; stroke-linejoin: miter; stroke-linecap: square"/>
   </g>
   <g id="text_12">
    <text style="fill: #262626; font: 14.4px 'Arial', 'DejaVu Sans', 'Liberation Sans', 'Bitstream Vera Sans', sans-serif; text-anchor: middle" x="235.2285" y="18.14175" transform="rotate(-0 235.2285 18.14175)">Distribution of Magratio</text>
   </g>
  </g>
 </g>
 <defs>
  <clipPath id="p5431114cf1">
   <rect x="56.6685" y="24.14175" width="357.12" height="266.112"/>
  </clipPath>
 </defs>
</svg>
